<?xml version="1.0" encoding="UTF-8" standalone="no"?>
<svg
   id="svg8"
   version="1.1"
   viewBox="0 0 33.539436 13.02168"
   height="13.02168mm"
   width="33.539436mm"
   sodipodi:docname="recibir.svg"
   inkscape:version="1.1 (c4e8f9e, 2021-05-24)"
   xmlns:inkscape="http://www.inkscape.org/namespaces/inkscape"
   xmlns:sodipodi="http://sodipodi.sourceforge.net/DTD/sodipodi-0.dtd"
   xmlns="http://www.w3.org/2000/svg"
   xmlns:svg="http://www.w3.org/2000/svg"
   xmlns:rdf="http://www.w3.org/1999/02/22-rdf-syntax-ns#"
   xmlns:cc="http://creativecommons.org/ns#"
   xmlns:dc="http://purl.org/dc/elements/1.1/">
  <sodipodi:namedview
     pagecolor="#ffffff"
     bordercolor="#666666"
     borderopacity="1"
     objecttolerance="10"
     gridtolerance="10"
     guidetolerance="10"
     inkscape:pageopacity="0"
     inkscape:pageshadow="2"
     inkscape:window-width="1844"
     inkscape:window-height="1020"
     id="namedview16"
     showgrid="false"
     fit-margin-top="0"
     fit-margin-left="0"
     fit-margin-right="0"
     fit-margin-bottom="0"
     inkscape:zoom="6.2233301"
     inkscape:cx="65.800785"
     inkscape:cy="23.21908"
     inkscape:window-x="1996"
     inkscape:window-y="0"
     inkscape:window-maximized="1"
     inkscape:current-layer="svg8"
     inkscape:pagecheckerboard="0"
     inkscape:document-units="mm" />
  <defs
     id="defs2">
    <filter
       inkscape:collect="always"
       style="color-interpolation-filters:sRGB"
       id="filter1036"
       x="-0.13805021"
       y="-0.18981874"
       width="1.2761004"
       height="1.3796375">
      <feGaussianBlur
         inkscape:collect="always"
         stdDeviation="0.72511231"
         id="feGaussianBlur1038" />
    </filter>
  </defs>
  <metadata
     id="metadata5">
    <rdf:RDF>
      <cc:Work
         rdf:about="">
        <dc:format>image/svg+xml</dc:format>
        <dc:type
           rdf:resource="http://purl.org/dc/dcmitype/StillImage" />
      </cc:Work>
    </rdf:RDF>
  </metadata>
  <g
     transform="matrix(0.08867516,0,0,0.09860282,22.202338,1.7087547)"
     id="layer1">
    <g
       id="g93"
       transform="translate(-17.886223,-8.4659887)">
      <circle
         style="opacity:1;fill:#0066ff;fill-opacity:1;stroke:none;stroke-width:0.365;stroke-linecap:round;stroke-linejoin:round;stroke-miterlimit:4;stroke-dasharray:none;stroke-dashoffset:0.15;stroke-opacity:1;paint-order:stroke fill markers"
         id="path850"
         cx="62.421162"
         cy="56.93047"
         r="64.956818" />
      <path
         inkscape:connector-curvature="0"
         style="fill:#0055d4;stroke:none;stroke-width:1px;stroke-linecap:butt;stroke-linejoin:miter;stroke-opacity:1"
         d="m 290.92383,82.775391 -70.90039,154.068359 115.2207,66.52344 35.25391,154.20117 A 245.50608,245.50608 0 0 0 488.94922,280.80078 Z"
         transform="matrix(0.26458333,0,0,0.26458333,-2.718156,-8.2088481)"
         id="path873" />
      <path
         inkscape:connector-curvature="0"
         style="fill:#0055d4;fill-opacity:1;stroke:none;stroke-width:1px;stroke-linecap:butt;stroke-linejoin:miter;stroke-opacity:1"
         d="m 326.42773,287.39258 -208.96679,101.2539 101.40234,101.40235 a 245.50608,245.50608 0 0 0 27.33203,1.65234 245.50608,245.50608 0 0 0 191.8418,-92.69922 z"
         transform="matrix(0.26458333,0,0,0.26458333,-2.718156,-8.2088481)"
         id="path871" />
      <path
         inkscape:connector-curvature="0"
         style="fill:#b3b3b3;fill-opacity:1;stroke:none;stroke-width:0.264583px;stroke-linecap:butt;stroke-linejoin:miter;stroke-opacity:1"
         d="m 52.004429,57.681013 7.556788,4.362913 -0.799184,0.9789 -6.709077,-3.189173 z"
         id="path875" />
      <g
         id="g844"
         transform="translate(-145.5862,-24.623108)">
        <path
           inkscape:connector-curvature="0"
           style="fill:#d5e5ff;stroke-width:0.264583"
           d="m 196.50489,127.59108 c 0,-0.14553 -0.38695,-0.26497 -0.85989,-0.26543 -1.22817,-10e-4 -5.18076,-0.71443 -8.26587,-1.49153 -6.90363,-1.73893 -12.86285,-5.00851 -14.34199,-7.86885 -0.83712,-1.6188 0.0157,-15.14755 1.25287,-19.875235 1.57204,-6.007312 4.89135,-9.766948 10.91694,-12.365135 2.17552,-0.938064 7.33122,-2.419131 10.84862,-3.116456 l 1.53506,-0.304323 1.37536,1.061026 c 2.57948,1.98995 5.37326,2.824869 9.31286,2.783136 3.41859,-0.03621 6.17979,-0.8872 8.46146,-2.607773 0.87026,-0.656251 1.61251,-1.193183 1.64943,-1.193183 0.0369,0 1.52755,0.308007 3.3125,0.684459 10.36453,2.185923 15.66,5.350758 18.44895,11.026017 1.93506,3.937675 2.50754,7.129777 2.96596,16.538167 0.28168,5.7812 0.27022,6.50987 -0.11515,7.318 -0.45252,0.94894 -3.22482,3.31781 -5.22211,4.46219 -3.2945,1.88762 -10.33305,4.04331 -15.41198,4.7202 -1.41883,0.18909 -2.57969,0.43729 -2.57969,0.55155 0,0.11426 -5.23875,0.20775 -11.64166,0.20775 -7.58473,0 -11.64167,-0.0922 -11.64167,-0.26458 z m 8.03532,-47.226083 c -3.15776,-0.686784 -6.18687,-2.523834 -8.89482,-5.394404 -2.20478,-2.337176 -3.86701,-5.147143 -4.91458,-8.30798 -1.08542,-3.275028 -1.3653,-5.210461 -1.36767,-9.457643 -0.005,-8.560472 1.48636,-13.650919 5.05514,-17.257203 2.00778,-2.028878 4.67534,-3.472814 7.3574,-3.982518 0.88461,-0.168113 1.60838,-0.397481 1.60838,-0.509707 0,-0.112226 2.08359,-0.204047 4.63021,-0.204047 2.54661,0 4.6302,0.09182 4.6302,0.204047 0,0.112226 0.72377,0.341594 1.60838,0.509707 2.68475,0.510216 5.35001,1.95357 7.35401,3.982518 3.56705,3.611454 5.0633,8.715918 5.05853,17.257203 -0.002,4.247182 -0.28225,6.182615 -1.36767,9.457643 -3.26039,9.837581 -12.00035,15.606977 -20.75751,13.702384 z"
           id="path846" />
      </g>
      <g
         id="g894"
         transform="matrix(0.29767194,0,0,0.29767194,7.7989559,51.96872)"
         style="fill:#ffffff">
        <path
           inkscape:connector-curvature="0"
           style="fill:#00112b;stroke-width:0.352778"
           d="m 117.18783,159.52775 c 0.0979,-0.44294 24.03293,-23.73833 58.34732,-56.78805 5.22504,-5.032466 9.81757,-9.672231 10.20562,-10.31059 l 0.70556,-1.160653 -1.49931,-2.785921 c -0.82462,-1.532258 -1.4993,-2.964681 -1.4993,-3.183163 0,-0.28884 4.53184,-0.397238 16.60769,-0.397238 h 16.60769 l 0.95382,0.970138 c 1.09362,1.112333 19.53233,32.382127 19.59083,33.223667 0.0345,0.49608 -1.72703,0.56451 -16.641,0.64646 -13.84735,0.0761 -16.84247,0.007 -17.63889,-0.40886 -0.68969,-0.35983 -1.9361,-2.26949 -4.43465,-6.79443 -1.91144,-3.46165 -3.75453,-6.58479 -4.09577,-6.9403 -0.59709,-0.62208 -1.32865,0.0418 -19.45521,17.65508 -10.35913,10.0658 -23.12104,22.46135 -28.35979,27.54567 l -9.525,9.24421 -9.99184,1e-5 c -8.58554,2e-5 -9.97578,-0.0726 -9.87777,-0.51603 z m 66.71696,-80.931079 c -2.36799,-0.121509 -4.45806,-0.379675 -4.64459,-0.573703 -0.18654,-0.194028 -2.8898,-4.87195 -6.00725,-10.395383 -3.8999,-6.90979 -5.55436,-10.156261 -5.30355,-10.406944 0.24038,-0.240246 6.0031,-0.364339 16.91939,-0.364339 h 16.55485 l 0.84612,0.881944 c 0.46537,0.48507 2.40172,4.183827 4.30301,8.21946 1.90129,4.035633 3.59568,7.423296 3.76532,7.52814 0.16964,0.104843 1.76902,-1.052856 3.55417,-2.572665 9.88281,-8.413839 16.08057,-13.436515 16.8456,-13.651699 1.23831,-0.348304 18.01146,-0.737131 19.17717,-0.444555 0.83907,0.210593 0.91116,0.32236 0.51544,0.799172 -0.40191,0.484276 -8.84433,7.398137 -20.30315,16.627128 -6.12223,4.930878 -3.41327,4.42373 -24.06113,4.504511 -9.82079,0.03842 -19.79342,-0.02956 -22.1614,-0.151067 z"
           id="path896" />
      </g>
      <path
         inkscape:connector-curvature="0"
         style="fill:#003380;stroke:none;stroke-width:0.264583px;stroke-linecap:butt;stroke-linejoin:miter;stroke-opacity:1"
         d="m 88.287117,99.485518 -0.534538,-18.8425 -1.202714,-0.801809 1.269532,0.634764 0.100224,-1.135893 0.100227,1.169302 z"
         id="path900" />
      <path
         inkscape:connector-curvature="0"
         id="path902"
         d="m 35.167298,99.485518 0.718856,-18.462697 c 0.0061,-0.07231 0.02819,-0.143165 0.0739,-0.192452 l 0.944493,-0.98916 c 0,0 -0.564189,0.464653 -0.977206,0.23386 -0.331811,-0.185415 -0.510668,-3.333575 -0.510668,-3.333575 0,0 0.02375,2.511925 0.01789,3.767888 -0.02953,6.325937 -0.267266,18.976136 -0.267265,18.976136 z"
         style="fill:#003380;stroke:none;stroke-width:0.264583px;stroke-linecap:butt;stroke-linejoin:miter;stroke-opacity:1" />
    </g>
  </g>
  <path
     id="path2640"
     d="M 21.27889,4.5648837 23.071428,6.3574221 21.27889,8.1499606 20.959764,7.8285714 22.204582,6.5837525 H 18.997477 V 6.1310918 h 3.207105 L 20.959764,4.8862729 21.27889,4.5648837 m 1.792538,1.7925384 c -14.9426386,-4.6629653 -7.47132,-2.3314826 0,0 z"
     inkscape:connector-curvature="0"
     style="fill:#ffffff;stroke-width:0.226331"
     sodipodi:nodetypes="cccccccccccc" />
  <g
     id="g2924"
     transform="matrix(1.1884448,0,0,1.1884448,1.7070824,-2.4525879)">
    <g
       id="g1609"
       transform="matrix(0.79953426,0,0,0.79953426,-0.99385206,-10.334021)">
      <g
         id="g1726"
         transform="translate(0.71633537,3.1246786)">
        <g
           id="g1741"
           transform="translate(3.3937358,13.018503)">
          <g
             id="g1034"
             transform="translate(-42.666058,-53.416004)"
             style="filter:url(#filter1036)">
            <path
               inkscape:connector-curvature="0"
               d="m 52.4071,63.651355 a 0.8595043,0.8595043 0 0 1 -0.8595,-0.85949 0.8595043,0.8595043 0 0 1 0.8595,-0.85951 0.8595043,0.8595043 0 0 1 0.85951,0.85951 0.8595043,0.8595043 0 0 1 -0.85951,0.85949 m 0.85951,-5.15702 1.12308,1.43251 H 51.8341 v -1.43251 m -6.30304,5.15702 a 0.8595043,0.8595043 0 0 1 -0.85949,-0.85949 0.8595043,0.8595043 0 0 1 0.85949,-0.85951 0.8595043,0.8595043 0 0 1 0.85952,0.85951 0.8595043,0.8595043 0 0 1 -0.85952,0.85949 m 8.02205,-6.01651 H 51.8341 v -2.29203 h -8.02204 c -0.63603,0 -1.146002,0.50997 -1.146002,1.14601 v 6.30304 h 1.146002 a 1.7190086,1.7190086 0 0 0 1.719,1.71901 1.7190086,1.7190086 0 0 0 1.71901,-1.71901 h 3.43802 a 1.7190086,1.7190086 0 0 0 1.71901,1.71901 1.7190086,1.7190086 0 0 0 1.71901,-1.71901 h 1.14601 v -2.86502 z"
               id="path1032"
               style="stroke-width:0.573002" />
          </g>
          <rect
             style="fill:#ffffff;stroke:#b3b3b3;stroke-width:0;stroke-linecap:round"
             id="rect1062"
             width="21.510597"
             height="0.1465662"
             x="-5.4504814"
             y="2.1647108" />
          <rect
             style="fill:#ffffff;stroke:#b3b3b3;stroke-width:0;stroke-linecap:round"
             id="rect1144"
             width="21.510597"
             height="0.1465662"
             x="-5.4504814"
             y="3.0401666" />
          <rect
             style="fill:#ffffff;stroke:#b3b3b3;stroke-width:0;stroke-linecap:round"
             id="rect1146"
             width="21.510597"
             height="0.1465662"
             x="-5.4504814"
             y="3.915622" />
          <rect
             style="fill:#ffffff;stroke:#b3b3b3;stroke-width:0;stroke-linecap:round"
             id="rect1148"
             width="21.510597"
             height="0.1465662"
             x="-5.4504814"
             y="4.7910776" />
          <rect
             style="fill:#ffffff;stroke:#b3b3b3;stroke-width:0;stroke-linecap:round"
             id="rect1150"
             width="21.510597"
             height="0.1465662"
             x="-5.4504814"
             y="5.6665335" />
          <rect
             style="fill:#ffffff;stroke:#b3b3b3;stroke-width:0;stroke-linecap:round"
             id="rect1152"
             width="21.510597"
             height="0.1465662"
             x="-5.4504814"
             y="6.5419893" />
          <rect
             style="fill:#ffffff;stroke:#b3b3b3;stroke-width:0;stroke-linecap:round"
             id="rect1154"
             width="21.510597"
             height="0.1465662"
             x="-5.4504814"
             y="7.4174442" />
          <rect
             style="fill:#ffffff;stroke:#b3b3b3;stroke-width:0;stroke-linecap:round"
             id="rect1156"
             width="21.510597"
             height="0.1465662"
             x="-5.4504814"
             y="8.2929001" />
          <rect
             style="fill:#ffffff;stroke:#b3b3b3;stroke-width:0;stroke-linecap:round"
             id="rect1158"
             width="21.510597"
             height="0.1465662"
             x="-5.4504814"
             y="9.1683569" />
          <rect
             style="fill:#ffffff;stroke:#b3b3b3;stroke-width:0;stroke-linecap:round"
             id="rect1160"
             width="21.510597"
             height="0.1465662"
             x="-5.4504814"
             y="10.043812" />
          <rect
             style="fill:#ffffff;stroke:#b3b3b3;stroke-width:0;stroke-linecap:round"
             id="rect1162"
             width="21.510597"
             height="0.1465662"
             x="-4.7963996"
             y="10.919267" />
        </g>
      </g>
    </g>
    <g
       id="g2016"
       transform="matrix(0.79953426,0,0,0.79953426,3.1384645,2.5730059)">
      <rect
         style="fill:#ffffff;stroke:#b3b3b3;stroke-width:0;stroke-linecap:round"
         id="rect1879"
         width="2.9044125"
         height="1.5157197"
         x="8.6433163"
         y="4.995121"
         rx="0.58653098"
         ry="0.58653098" />
      <ellipse
         style="fill:#ffffff;stroke:#b3b3b3;stroke-width:0;stroke-linecap:round"
         id="path1775"
         cx="2.8683193"
         cy="9.9171953"
         rx="1.2885317"
         ry="0.99225444" />
      <ellipse
         style="fill:#ffffff;stroke:#b3b3b3;stroke-width:0;stroke-linecap:round"
         id="path1773"
         cx="9.6827927"
         cy="9.5018177"
         rx="1.1674948"
         ry="0.93430811" />
      <g
         id="g1749">
        <g
           transform="translate(-42.666058,-53.416004)"
           id="g1873">
          <path
             style="stroke-width:0.573002"
             id="path824"
             d="m 52.4071,63.651355 a 0.8595043,0.8595043 0 0 1 -0.8595,-0.85949 0.8595043,0.8595043 0 0 1 0.8595,-0.85951 0.8595043,0.8595043 0 0 1 0.85951,0.85951 0.8595043,0.8595043 0 0 1 -0.85951,0.85949 m 0.85951,-5.15702 1.12308,1.43251 H 51.8341 v -1.43251 m -6.30304,5.15702 a 0.8595043,0.8595043 0 0 1 -0.85949,-0.85949 0.8595043,0.8595043 0 0 1 0.85949,-0.85951 0.8595043,0.8595043 0 0 1 0.85952,0.85951 0.8595043,0.8595043 0 0 1 -0.85952,0.85949 m 8.02205,-6.01651 H 51.8341 v -2.29203 h -8.02204 c -0.63603,0 -1.146002,0.50997 -1.146002,1.14601 v 6.30304 h 1.146002 a 1.7190086,1.7190086 0 0 0 1.719,1.71901 1.7190086,1.7190086 0 0 0 1.71901,-1.71901 h 3.43802 a 1.7190086,1.7190086 0 0 0 1.71901,1.71901 1.7190086,1.7190086 0 0 0 1.71901,-1.71901 h 1.14601 v -2.86502 z"
             inkscape:connector-curvature="0" />
        </g>
        <g
           id="g77"
           transform="translate(-42.666058,-53.416004)">
          <path
             inkscape:connector-curvature="0"
             d="m 52.4071,63.651355 a 0.8595043,0.8595043 0 0 1 -0.8595,-0.85949 0.8595043,0.8595043 0 0 1 0.8595,-0.85951 0.8595043,0.8595043 0 0 1 0.85951,0.85951 0.8595043,0.8595043 0 0 1 -0.85951,0.85949 m 0.85951,-5.15702 1.12308,1.43251 H 51.8341 v -1.43251 m -6.30304,5.15702 a 0.8595043,0.8595043 0 0 1 -0.85949,-0.85949 0.8595043,0.8595043 0 0 1 0.85949,-0.85951 0.8595043,0.8595043 0 0 1 0.85952,0.85951 0.8595043,0.8595043 0 0 1 -0.85952,0.85949 m 8.02205,-6.01651 H 51.8341 v -2.29203 h -8.02204 c -0.63603,0 -1.146002,0.50997 -1.146002,1.14601 v 6.30304 h 1.146002 a 1.7190086,1.7190086 0 0 0 1.719,1.71901 1.7190086,1.7190086 0 0 0 1.71901,-1.71901 h 3.43802 a 1.7190086,1.7190086 0 0 0 1.71901,1.71901 1.7190086,1.7190086 0 0 0 1.71901,-1.71901 h 1.14601 v -2.86502 z"
             id="path75"
             style="stroke-width:0.573002" />
        </g>
        <rect
           y="2.5020871"
           x="0.66217107"
           height="6.0654225"
           width="7.8531265"
           id="rect81"
           style="fill:#ff6600;stroke:none;stroke-width:0;stroke-linecap:round"
           rx="0.58652991"
           ry="0.58652991" />
        <rect
           style="fill:#ffffff;stroke:#b3b3b3;stroke-width:0;stroke-linecap:round"
           id="rect79"
           width="7.0940881"
           height="6.0654225"
           x="1.4212098"
           y="2.5020871" />
      </g>
    </g>
    <rect
       style="fill:#ffffff;stroke:#b3b3b3;stroke-width:0;stroke-linecap:round"
       id="rect2132-3"
       width="15.325386"
       height="1.6062762"
       x="1.6808763"
       y="2.3812432"
       rx="0.52783436"
       ry="0.52783436" />
    <rect
       style="fill:#ffffff;stroke:#b3b3b3;stroke-width:0;stroke-linecap:round"
       id="rect2246"
       width="15.048527"
       height="0.88593763"
       x="1.6808763"
       y="11.504868"
       rx="0.50909925"
       ry="0.35311168" />
  </g>
</svg>
