<?xml version="1.0" encoding="UTF-8" standalone="no"?>
<!-- Created with Inkscape (http://www.inkscape.org/) -->

<svg
   xmlns:dc="http://purl.org/dc/elements/1.1/"
   xmlns:cc="http://creativecommons.org/ns#"
   xmlns:rdf="http://www.w3.org/1999/02/22-rdf-syntax-ns#"
   xmlns:svg="http://www.w3.org/2000/svg"
   xmlns="http://www.w3.org/2000/svg"
   xmlns:sodipodi="http://sodipodi.sourceforge.net/DTD/sodipodi-0.dtd"
   xmlns:inkscape="http://www.inkscape.org/namespaces/inkscape"
   width="13.831744mm"
   height="10.184818mm"
   viewBox="0 0 13.831744 10.184818"
   version="1.1"
   id="svg925"
   inkscape:version="0.92.5 (2060ec1f9f, 2020-04-08)"
   sodipodi:docname="icono_montacargas.svg">
  <defs
     id="defs919" />
  <sodipodi:namedview
     id="base"
     pagecolor="#ffffff"
     bordercolor="#666666"
     borderopacity="1.0"
     inkscape:pageopacity="0.0"
     inkscape:pageshadow="2"
     inkscape:zoom="15.839192"
     inkscape:cx="18.025686"
     inkscape:cy="6.2839978"
     inkscape:document-units="mm"
     inkscape:current-layer="layer1"
     showgrid="false"
     inkscape:window-width="1920"
     inkscape:window-height="1015"
     inkscape:window-x="0"
     inkscape:window-y="0"
     inkscape:window-maximized="1" />
  <metadata
     id="metadata922">
    <rdf:RDF>
      <cc:Work
         rdf:about="">
        <dc:format>image/svg+xml</dc:format>
        <dc:type
           rdf:resource="http://purl.org/dc/dcmitype/StillImage" />
        <dc:title></dc:title>
      </cc:Work>
    </rdf:RDF>
  </metadata>
  <g
     inkscape:label="Capa 1"
     inkscape:groupmode="layer"
     id="layer1"
     transform="translate(-0.96585941,-5.8977318)">
    <path
       style="opacity:1;fill:#ffffff;stroke:none;stroke-width:0.62362206;stroke-miterlimit:4;stroke-dasharray:none"
       d="M 2.1308594 3.4316406 C 0.95564665 3.4316406 0.009765625 4.3775217 0.009765625 5.5527344 L 0.009765625 12.785156 L 0.009765625 15.378906 C 0.0082548988 15.411907 1.1564823e-18 15.443177 0 15.476562 L 0 29.023438 C 0 30.198649 0.945881 31.144531 2.1210938 31.144531 L 29.791016 31.144531 C 30.966228 31.144531 31.912109 30.198649 31.912109 29.023438 L 31.912109 15.476562 C 31.912109 14.301351 30.966228 13.353516 29.791016 13.353516 L 25.527344 13.353516 L 25.527344 8.4628906 L 25.527344 5.5527344 C 25.527344 4.3775217 24.581463 3.4316406 23.40625 3.4316406 L 2.1308594 3.4316406 z M 2.0566406 5.4804688 L 23.5625 5.4804688 L 23.5625 21.746094 L 2.0566406 21.746094 L 2.0566406 5.4804688 z "
       transform="matrix(0.26458333,0,0,0.26458333,0.96585941,5.8977318)"
       id="rect859" />
    <rect
       style="opacity:1;fill:#ffffff;stroke:none;stroke-width:0.16500001;stroke-miterlimit:4;stroke-dasharray:none"
       id="rect855"
       width="0.5324707"
       height="4.1032867"
       x="-9.3810539"
       y="5.8977318"
       transform="scale(-1,1)"
       rx="0.26623535"
       ry="0.26623535" />
    <rect
       transform="matrix(0,-1,-1,0,0,0)"
       y="-14.797604"
       x="-7.7659874"
       height="5.8469601"
       width="0.46520239"
       id="rect857"
       style="opacity:1;fill:#ffffff;stroke:none;stroke-width:0.16500001;stroke-miterlimit:4;stroke-dasharray:none"
       rx="0.2326012"
       ry="0.2326012" />
    <path
       d="m 8.3749073,16.08255 a 1.0583333,1.0583333 0 1 1 1.058333,-1.058334 v 0 a 1.0583333,1.0583333 0 0 1 -1.058333,1.058334 z m 0,-1.5875 a 0.52916667,0.52916667 0 1 0 0.529166,0.529166 v 0 A 0.52916667,0.52916667 0 0 0 8.3749073,14.49505 Z"
       id="path1006-3"
       style="fill:#ffffff;stroke-width:0.26458299"
       inkscape:connector-curvature="0" />
    <path
       inkscape:connector-curvature="0"
       style="fill:#ffffff;stroke-width:0.26458299"
       id="path878"
       d="m 2.3898501,16.016403 a 1.0583333,1.0583333 0 1 1 1.058333,-1.058333 v 0 a 1.0583333,1.0583333 0 0 1 -1.058333,1.058333 z m 0,-1.5875 a 0.52916667,0.52916667 0 1 0 0.529166,0.529167 v 0 a 0.52916667,0.52916667 0 0 0 -0.529166,-0.529167 z" />
    <g
       id="g1183"
       transform="matrix(0.67187498,0,0,0.67187498,-2.9591279,-2.7604823)"
       style="fill:#ffffff">
      <path
         style="fill:#ffffff;stroke-width:0.99999869"
         d="m 31.041016,58.205078 a 3,3 0 0 0 -3,3 v 6 a 2,2 0 0 0 2,2 v 2.496094 h 2 v -4.496094 h -2 v -6 a 0.93999999,0.93999999 0 0 1 1,-1 h 6 a 0.93999999,0.93999999 0 0 1 1,1 v 6 h -2 v 4.496094 h 2 v -2.496094 a 2,2 0 0 0 2,-2 v -6 a 3,3 0 0 0 -3,-3 z"
         transform="matrix(0.26458333,0,0,0.26458333,1.7153384,2.7195718)"
         id="path1004"
         inkscape:connector-curvature="0" />
      <path
         d="m 10.669712,17.928665 a 1.0583333,1.0583333 0 1 1 1.058333,-1.058333 v 0 a 1.0583333,1.0583333 0 0 1 -1.058333,1.058333 z m 0,-1.5875 a 0.52916666,0.52916666 0 1 0 0.529166,0.529167 v 0 a 0.52916666,0.52916666 0 0 0 -0.529166,-0.529167 z"
         id="path1006"
         style="fill:#ffffff;stroke-width:0.26458299"
         inkscape:connector-curvature="0" />
    </g>
    <rect
       ry="0.36466312"
       rx="0.36466312"
       transform="matrix(0,-1,-1,0,0,0)"
       y="-2.9629614"
       x="-11.62216"
       height="0.72932625"
       width="3.3870697"
       id="rect861-6-7-3"
       style="opacity:1;fill:#ffffff;fill-opacity:1;stroke:none;stroke-width:0.13041429;stroke-miterlimit:4;stroke-dasharray:none" />
    <rect
       ry="0"
       rx="0"
       transform="matrix(0,-1,-1,0,0,0)"
       y="-8.7432194"
       x="-13.579701"
       height="7.4337244"
       width="3.5786819"
       id="rect861"
       style="opacity:1;fill:#ffffff;fill-opacity:1;stroke:none;stroke-width:0.13041429;stroke-miterlimit:4;stroke-dasharray:none" />
  </g>
</svg>
