<?xml version="1.0" encoding="UTF-8" standalone="no"?>
<!-- Created with Inkscape (http://www.inkscape.org/) -->

<svg
   xmlns:dc="http://purl.org/dc/elements/1.1/"
   xmlns:cc="http://creativecommons.org/ns#"
   xmlns:rdf="http://www.w3.org/1999/02/22-rdf-syntax-ns#"
   xmlns:svg="http://www.w3.org/2000/svg"
   xmlns="http://www.w3.org/2000/svg"
   xmlns:sodipodi="http://sodipodi.sourceforge.net/DTD/sodipodi-0.dtd"
   xmlns:inkscape="http://www.inkscape.org/namespaces/inkscape"
   width="8.0868692mm"
   height="9.368083mm"
   viewBox="0 0 8.0868692 9.3680831"
   version="1.1"
   id="svg8"
   inkscape:version="0.92.5 (2060ec1f9f, 2020-04-08)"
   sodipodi:docname="icono_mas_info_de_folios.svg">
  <defs
     id="defs2" />
  <sodipodi:namedview
     id="base"
     pagecolor="#ffffff"
     bordercolor="#666666"
     borderopacity="1.0"
     inkscape:pageopacity="0.0"
     inkscape:pageshadow="2"
     inkscape:zoom="2.8"
     inkscape:cx="-19.671543"
     inkscape:cy="81.751458"
     inkscape:document-units="mm"
     inkscape:current-layer="layer1"
     showgrid="false"
     showguides="true"
     inkscape:guide-bbox="true"
     inkscape:window-width="1844"
     inkscape:window-height="1020"
     inkscape:window-x="76"
     inkscape:window-y="0"
     inkscape:window-maximized="1"
     fit-margin-top="0"
     fit-margin-left="0"
     fit-margin-right="0"
     fit-margin-bottom="0" />
  <metadata
     id="metadata5">
    <rdf:RDF>
      <cc:Work
         rdf:about="">
        <dc:format>image/svg+xml</dc:format>
        <dc:type
           rdf:resource="http://purl.org/dc/dcmitype/StillImage" />
        <dc:title></dc:title>
      </cc:Work>
    </rdf:RDF>
  </metadata>
  <g
     inkscape:label="Capa 1"
     inkscape:groupmode="layer"
     id="layer1"
     transform="translate(-4.7440343,-110.17859)">
    <g
       id="g905"
       transform="matrix(0.8770249,0,0,0.8770249,0.58339811,13.549223)">
      <g
         style="fill:#ffffff"
         id="g890">
        <rect
           style="fill:#ffffff;stroke-width:13.06499958"
           id="rect832"
           width="1.2027128"
           height="7.7508197"
           x="4.7440343"
           y="110.17859" />
        <rect
           style="fill:#ffffff;stroke-width:13.06499958"
           id="rect834"
           width="0.4009043"
           height="7.7508197"
           x="7.6839986"
           y="110.17859" />
        <rect
           style="fill:#ffffff;stroke-width:13.06499958"
           id="rect836"
           width="1.3697563"
           height="7.7508197"
           x="8.7530775"
           y="110.17859" />
        <rect
           style="fill:#ffffff;stroke-width:13.06499958"
           id="rect838"
           width="0.76839906"
           height="7.7508211"
           x="10.857824"
           y="110.17859" />
        <rect
           y="110.17859"
           x="12.093946"
           height="7.7508211"
           width="0.76839906"
           id="rect840"
           style="fill:#ffffff;stroke-width:13.06499958" />
        <rect
           style="fill:#ffffff;stroke-width:13.06499958"
           id="rect842"
           width="0.33408627"
           height="7.750824"
           x="13.630746"
           y="110.17859" />
      </g>
      <g
         aria-label="765410"
         style="font-style:normal;font-variant:normal;font-weight:bold;font-stretch:normal;font-size:2.58723474px;line-height:1.25;font-family:sans-serif;-inkscape-font-specification:'sans-serif Bold';letter-spacing:0px;word-spacing:0px;fill:#b3b3b3;fill-opacity:1;stroke:none;stroke-width:0.06468087"
         id="text846">
        <path
           d="m 5.3013116,120.83437 0.7580597,-1.6403 H 5.063286 v -0.20698 h 1.2392854 v 0.17593 l -0.7502981,1.67135 z"
           style="font-style:normal;font-variant:normal;font-weight:normal;font-stretch:normal;font-family:sans-serif;-inkscape-font-specification:sans-serif;fill:#b3b3b3;stroke-width:0.06468087"
           id="path907"
           inkscape:connector-curvature="0" />
        <path
           d="m 6.5716402,120.04527 q 0,-0.19922 0.033634,-0.39068 0.036221,-0.19404 0.1267745,-0.34927 0.09314,-0.15782 0.2587235,-0.25096 0.165583,-0.0931 0.4268937,-0.0931 0.054332,0 0.1190128,0.005 0.067268,0.005 0.1086639,0.0181 v 0.19404 q -0.04657,-0.0155 -0.1060766,-0.0233 -0.056919,-0.008 -0.1164256,-0.008 -0.1785192,0 -0.297532,0.0595 -0.1190128,0.0595 -0.1888681,0.163 -0.067268,0.10349 -0.098315,0.23802 -0.031047,0.13454 -0.038809,0.28719 h 0.015523 q 0.059506,-0.0906 0.1655831,-0.15265 0.1060766,-0.0647 0.2716596,-0.0647 0.2406128,0 0.3880852,0.14747 0.1474724,0.14489 0.1474724,0.41396 0,0.28977 -0.1604085,0.45535 -0.1578214,0.16559 -0.4268938,0.16559 -0.1759319,0 -0.3182299,-0.088 -0.1422979,-0.088 -0.2276766,-0.26907 -0.082791,-0.18111 -0.082791,-0.45794 z m 0.6261108,0.62352 q 0.1629958,0 0.2638979,-0.10349 0.1009022,-0.10608 0.1009022,-0.32599 0,-0.17593 -0.090553,-0.27942 -0.087966,-0.10349 -0.2664852,-0.10349 -0.1216,0 -0.2121533,0.0517 -0.090553,0.0492 -0.1422979,0.12678 -0.049157,0.0776 -0.049157,0.16041 0,0.11125 0.043983,0.2225 0.043983,0.10866 0.1319489,0.18111 0.087966,0.0699 0.219915,0.0699 z"
           style="font-style:normal;font-variant:normal;font-weight:normal;font-stretch:normal;font-family:sans-serif;-inkscape-font-specification:sans-serif;fill:#b3b3b3;stroke-width:0.06468087"
           id="path909"
           inkscape:connector-curvature="0" />
        <path
           d="m 8.6207265,119.70116 q 0.2845958,0 0.452766,0.1423 0.1681703,0.1423 0.1681703,0.40102 0,0.28719 -0.1836937,0.45277 -0.1811064,0.163 -0.507098,0.163 -0.1422979,0 -0.2690724,-0.0259 -0.1241873,-0.0259 -0.209566,-0.075 v -0.21474 q 0.09314,0.0569 0.2250894,0.0906 0.1345362,0.031 0.2561363,0.031 0.2043915,0 0.3285788,-0.0957 0.1267745,-0.0983 0.1267745,-0.30271 0,-0.18111 -0.1112511,-0.27684 -0.1112511,-0.0983 -0.3518639,-0.0983 -0.072443,0 -0.1655831,0.0129 -0.09314,0.0129 -0.1500596,0.0259 l -0.1138383,-0.0724 0.069855,-0.8719 h 0.9262301 v 0.20698 H 8.3801136 l -0.043983,0.53555 q 0.043983,-0.008 0.1190128,-0.0181 0.07503,-0.0104 0.1655831,-0.0104 z"
           style="font-style:normal;font-variant:normal;font-weight:normal;font-stretch:normal;font-family:sans-serif;-inkscape-font-specification:sans-serif;fill:#b3b3b3;stroke-width:0.06468087"
           id="path911"
           inkscape:connector-curvature="0" />
        <path
           d="m 10.817285,120.41524 h -0.269072 v 0.41913 h -0.219915 v -0.41913 H 9.4434635 v -0.19404 l 0.8693105,-1.24446 h 0.235439 v 1.23411 h 0.269072 z m -0.488987,-0.20439 v -0.58213 q 0,-0.13453 0.0052,-0.22767 0.0052,-0.0957 0.0078,-0.18111 h -0.01035 q -0.0207,0.0492 -0.05175,0.10608 -0.03105,0.0569 -0.05951,0.0957 l -0.5536683,0.78911 z"
           style="font-style:normal;font-variant:normal;font-weight:normal;font-stretch:normal;font-family:sans-serif;-inkscape-font-specification:sans-serif;fill:#b3b3b3;stroke-width:0.06468087"
           id="path913"
           inkscape:connector-curvature="0" />
        <path
           d="m 11.787495,120.83437 h -0.222503 v -1.29103 q 0,-0.11125 0.0026,-0.17852 0.0026,-0.0673 0.0078,-0.13971 -0.04139,0.0414 -0.07503,0.0699 -0.03363,0.0285 -0.08538,0.0724 l -0.19663,0.16041 -0.119013,-0.15265 0.499336,-0.38808 h 0.188869 z"
           style="font-style:normal;font-variant:normal;font-weight:normal;font-stretch:normal;font-family:sans-serif;-inkscape-font-specification:sans-serif;fill:#b3b3b3;stroke-width:0.06468087"
           id="path915"
           inkscape:connector-curvature="0" />
        <path
           d="m 13.702045,119.90814 q 0,0.29754 -0.06209,0.51228 -0.06209,0.21215 -0.19663,0.32599 -0.134536,0.11384 -0.357038,0.11384 -0.313056,0 -0.463115,-0.25097 -0.147473,-0.25354 -0.147473,-0.70114 0,-0.30012 0.05951,-0.51227 0.06209,-0.21215 0.19663,-0.3234 0.134536,-0.11384 0.354451,-0.11384 0.310468,0 0.463115,0.25096 0.152647,0.24837 0.152647,0.69855 z m -0.998673,0 q 0,0.38033 0.08538,0.5692 0.08797,0.18886 0.297532,0.18886 0.206979,0 0.294944,-0.18628 0.09055,-0.18887 0.09055,-0.57178 0,-0.37773 -0.09055,-0.5666 -0.08797,-0.18887 -0.294944,-0.18887 -0.209566,0 -0.297532,0.18887 -0.08538,0.18887 -0.08538,0.5666 z"
           style="font-style:normal;font-variant:normal;font-weight:normal;font-stretch:normal;font-family:sans-serif;-inkscape-font-specification:sans-serif;fill:#b3b3b3;stroke-width:0.06468087"
           id="path917"
           inkscape:connector-curvature="0" />
      </g>
      <g
         transform="translate(-8.0319941,-0.66145833)"
         id="g882">
        <circle
           style="fill:#666666;stroke:#ffffff;stroke-width:0.30000001;stroke-miterlimit:4;stroke-dasharray:none"
           id="path873"
           cx="17.528646"
           cy="114.57924"
           r="3.2600446" />
        <text
           xml:space="preserve"
           style="font-style:normal;font-variant:normal;font-weight:bold;font-stretch:normal;font-size:5.33366346px;line-height:1.25;font-family:sans-serif;-inkscape-font-specification:'sans-serif Bold';letter-spacing:0px;word-spacing:0px;fill:#ffffff;fill-opacity:1;stroke:none;stroke-width:0.1333416"
           x="16.701822"
           y="116.41138"
           id="text869"><tspan
             sodipodi:role="line"
             id="tspan867"
             x="16.701822"
             y="116.41138"
             style="fill:#ffffff;stroke-width:0.1333416">i</tspan></text>
      </g>
    </g>
  </g>
</svg>
