<?xml version="1.0" encoding="UTF-8" standalone="no"?>
<!-- Created with Inkscape (http://www.inkscape.org/) -->

<svg
   width="58.173634mm"
   height="22.533121mm"
   viewBox="0 0 58.173634 22.533121"
   version="1.1"
   id="svg5"
   inkscape:version="1.1 (c4e8f9e, 2021-05-24)"
   sodipodi:docname="laser robot.svg"
   xmlns:inkscape="http://www.inkscape.org/namespaces/inkscape"
   xmlns:sodipodi="http://sodipodi.sourceforge.net/DTD/sodipodi-0.dtd"
   xmlns="http://www.w3.org/2000/svg"
   xmlns:svg="http://www.w3.org/2000/svg">
  <sodipodi:namedview
     id="namedview7"
     pagecolor="#ffffff"
     bordercolor="#666666"
     borderopacity="1.0"
     inkscape:pageshadow="2"
     inkscape:pageopacity="0.0"
     inkscape:pagecheckerboard="0"
     inkscape:document-units="mm"
     showgrid="false"
     inkscape:zoom="12.101346"
     inkscape:cx="86.891158"
     inkscape:cy="156.34624"
     inkscape:window-width="1920"
     inkscape:window-height="1015"
     inkscape:window-x="0"
     inkscape:window-y="0"
     inkscape:window-maximized="1"
     inkscape:current-layer="layer1"
     fit-margin-top="0"
     fit-margin-left="0"
     fit-margin-right="0"
     fit-margin-bottom="0" />
  <defs
     id="defs2" />
  <g
     inkscape:label="Capa 1"
     inkscape:groupmode="layer"
     id="layer1"
     transform="translate(-41.777083,-13.079541)">
    <path
       id="rect45"
       style="fill:#000000;stroke-width:0.264583"
       d="m 41.777083,20.683405 v 7.169588 h 1.470194 v -7.169588 z m 3.254062,0 v 7.169588 h 0.594281 v -7.169588 z m 1.70274,0 v 7.169588 h 0.665075 v -7.169588 z m 1.179774,0 v 7.169588 h 0.825789 v -7.169588 z m 1.240235,0 v 7.169588 h 0.428913 v -7.169588 z m 1.611786,0 v 7.169588 h 0.934828 v -7.169588 z m 1.143084,0 v 7.169588 h 0.906405 v -7.169588 z m 2.154389,0 v 7.169588 h 0.383955 v -7.169588 z m 0.708485,0 v 7.169588 h 1.241266 v -7.169588 z" />
    <path
       id="path1594"
       style="fill:#4d4d4d;stroke-width:0.115481"
       d="m 87.255558,16.262278 v 3.129278 h 0.641689 v -3.129278 z m 1.420286,0 v 3.129278 h 0.259383 v -3.129278 z m 0.743187,0 v 3.129278 h 0.290282 v -3.129278 z m 0.514931,0 v 3.129278 h 0.36043 v -3.129278 z m 0.541319,0 v 3.129278 h 0.187208 v -3.129278 z m 0.70349,0 v 3.129278 h 0.408021 v -3.129278 z m 0.498915,0 v 3.129278 h 0.395617 v -3.129278 z m 0.940317,0 v 3.129278 h 0.167585 v -3.129278 z m 0.309232,0 v 3.129278 h 0.541767 v -3.129278 z" />
    <path
       id="path1614"
       style="fill:#4d4d4d;stroke-width:0.115481"
       d="m 87.255558,21.143212 v 3.129278 h 0.641689 v -3.129278 z m 1.420286,0 v 3.129278 h 0.259383 v -3.129278 z m 0.743187,0 v 3.129278 h 0.290282 v -3.129278 z m 0.514931,0 v 3.129278 h 0.36043 v -3.129278 z m 0.541319,0 v 3.129278 h 0.187208 v -3.129278 z m 0.70349,0 v 3.129278 h 0.408021 v -3.129278 z m 0.498915,0 v 3.129278 h 0.395617 v -3.129278 z m 0.940317,0 v 3.129278 h 0.167585 v -3.129278 z m 0.309232,0 v 3.129278 h 0.541767 v -3.129278 z" />
    <path
       id="path1616"
       style="fill:#808080;stroke-width:0.115481"
       d="m 87.255558,26.155213 v 3.129278 h 0.641689 v -3.129278 z m 1.420286,0 v 3.129278 h 0.259383 v -3.129278 z m 0.743187,0 v 3.129278 h 0.290282 v -3.129278 z m 0.514931,0 v 3.129278 h 0.36043 v -3.129278 z m 0.541319,0 v 3.129278 h 0.187208 v -3.129278 z m 0.70349,0 v 3.129278 h 0.408021 v -3.129278 z m 0.498915,0 v 3.129278 h 0.395617 v -3.129278 z m 0.940317,0 v 3.129278 h 0.167585 v -3.129278 z m 0.309232,0 v 3.129278 h 0.541767 v -3.129278 z" />
    <path
       id="path1618"
       style="fill:#cccccc;stroke-width:0.115481"
       d="m 87.255558,30.94779 v 3.129278 h 0.641689 V 30.94779 Z m 1.420286,0 v 3.129278 h 0.259383 V 30.94779 Z m 0.743187,0 v 3.129278 h 0.290282 V 30.94779 Z m 0.514931,0 v 3.129278 h 0.36043 V 30.94779 Z m 0.541319,0 v 3.129278 h 0.187208 V 30.94779 Z m 0.70349,0 v 3.129278 h 0.408021 V 30.94779 Z m 0.498915,0 v 3.129278 h 0.395617 V 30.94779 Z m 0.940317,0 v 3.129278 h 0.167585 V 30.94779 Z m 0.309232,0 v 3.129278 h 0.541767 V 30.94779 Z" />
    <path
       style="fill:#000000;stroke:none;stroke-width:0.177088px;stroke-linecap:butt;stroke-linejoin:miter;stroke-opacity:1"
       d="m 58.854668,19.186442 v 9.429247 l 3.279176,-4.284288 z"
       id="path1920"
       sodipodi:nodetypes="cccc" />
    <g
       id="g934"
       transform="matrix(0.50523933,0,0,0.50523933,37.894447,6.7388999)">
      <rect
         style="fill:#000000;stroke-width:0.264583"
         id="rect501"
         width="15.644617"
         height="15.555712"
         x="67.104843"
         y="16.288939" />
      <rect
         style="fill:#000000;stroke-width:0.264583"
         id="rect503"
         width="20.575823"
         height="3.9828701"
         x="64.817879"
         y="23.383213" />
      <g
         id="g1182"
         transform="translate(0.75558496,4.9248071)">
        <path
           id="path1093"
           style="fill:#ffffff;stroke-width:0.999999"
           d="m 268.41406,80.398438 a 2.0423921,2.0423921 0 0 0 -2.04297,2.042968 2.0423921,2.0423921 0 0 0 0.1875,0.853516 2.0423921,2.0423921 0 0 1 1.85547,-1.1875 2.0423921,2.0423921 0 0 1 1.85352,1.1875 2.0423921,2.0423921 0 0 0 0.1875,-0.853516 2.0423921,2.0423921 0 0 0 -2.04102,-2.042968 z"
           transform="scale(0.26458333)" />
        <path
           id="path1178"
           style="fill:#ffffff;stroke-width:0.264583"
           d="m 76.920331,21.272086 a 0.5403829,0.5403829 0 0 0 -0.540535,0.540536 0.5403829,0.5403829 0 0 0 0.04961,0.225826 0.5403829,0.5403829 0 0 1 0.490926,-0.314193 0.5403829,0.5403829 0 0 1 0.490411,0.314193 0.5403829,0.5403829 0 0 0 0.04961,-0.225826 0.5403829,0.5403829 0 0 0 -0.54002,-0.540536 z" />
      </g>
      <rect
         style="fill:#000000;stroke-width:0.398347"
         id="rect1184"
         width="23.553982"
         height="23.420128"
         x="63.150162"
         y="31.614405" />
      <rect
         style="fill:#000000;stroke-width:0.264583"
         id="rect1208"
         width="10.097197"
         height="6.9930153"
         x="63.150162"
         y="50.155666" />
      <rect
         style="fill:#000000;stroke-width:0.264583"
         id="rect1411"
         width="10.097197"
         height="6.9930153"
         x="76.606949"
         y="50.155666" />
      <rect
         style="fill:#000000;stroke:none;stroke-width:0.264583"
         id="rect2331"
         width="1.327392"
         height="4.3435349"
         x="73.962616"
         y="12.549778" />
      <rect
         style="fill:#000000;stroke:none;stroke-width:0.264583"
         id="rect2333"
         width="6.2274008"
         height="3.3899622"
         x="71.504036"
         y="14.479309" />
    </g>
    <g
       transform="matrix(0.14591219,0,0,0.14591219,55.145648,49.195696)"
       id="layer1-6">
      <circle
         r="64.956818"
         cy="56.93047"
         cx="62.421162"
         id="path850"
         style="opacity:1;fill:#e6e6e6;fill-opacity:1;stroke:none;stroke-width:0.365;stroke-linecap:round;stroke-linejoin:round;stroke-miterlimit:4;stroke-dasharray:none;stroke-dashoffset:0.15;stroke-opacity:1;paint-order:stroke fill markers" />
      <path
         id="path873"
         transform="matrix(0.26458333,0,0,0.26458333,-2.718156,-8.2088481)"
         d="m 290.92383,82.775391 -70.90039,154.068359 115.2207,66.52344 35.25391,154.20117 A 245.50608,245.50608 0 0 0 488.94922,280.80078 Z"
         style="fill:#b3b3b3;stroke:none;stroke-width:1px;stroke-linecap:butt;stroke-linejoin:miter;stroke-opacity:1"
         inkscape:connector-curvature="0" />
      <path
         id="path871"
         transform="matrix(0.26458333,0,0,0.26458333,-2.718156,-8.2088481)"
         d="m 326.42773,287.39258 -208.96679,101.2539 101.40234,101.40235 a 245.50608,245.50608 0 0 0 27.33203,1.65234 245.50608,245.50608 0 0 0 191.8418,-92.69922 z"
         style="fill:#b3b3b3;fill-opacity:1;stroke:none;stroke-width:1px;stroke-linecap:butt;stroke-linejoin:miter;stroke-opacity:1"
         inkscape:connector-curvature="0" />
      <path
         id="path875"
         d="m 52.004429,57.681013 7.556788,4.362913 -0.799184,0.9789 -6.709077,-3.189173 z"
         style="fill:#b3b3b3;fill-opacity:1;stroke:none;stroke-width:0.264583px;stroke-linecap:butt;stroke-linejoin:miter;stroke-opacity:1"
         inkscape:connector-curvature="0" />
      <g
         transform="translate(-145.5862,-24.623108)"
         id="g844">
        <path
           id="path846"
           d="m 196.50489,127.59108 c 0,-0.14553 -0.38695,-0.26497 -0.85989,-0.26543 -1.22817,-10e-4 -5.18076,-0.71443 -8.26587,-1.49153 -6.90363,-1.73893 -12.86285,-5.00851 -14.34199,-7.86885 -0.83712,-1.6188 0.0157,-15.14755 1.25287,-19.875235 1.57204,-6.007312 4.89135,-9.766948 10.91694,-12.365135 2.17552,-0.938064 7.33122,-2.419131 10.84862,-3.116456 l 1.53506,-0.304323 1.37536,1.061026 c 2.57948,1.98995 5.37326,2.824869 9.31286,2.783136 3.41859,-0.03621 6.17979,-0.8872 8.46146,-2.607773 0.87026,-0.656251 1.61251,-1.193183 1.64943,-1.193183 0.0369,0 1.52755,0.308007 3.3125,0.684459 10.36453,2.185923 15.66,5.350758 18.44895,11.026017 1.93506,3.937675 2.50754,7.129777 2.96596,16.538167 0.28168,5.7812 0.27022,6.50987 -0.11515,7.318 -0.45252,0.94894 -3.22482,3.31781 -5.22211,4.46219 -3.2945,1.88762 -10.33305,4.04331 -15.41198,4.7202 -1.41883,0.18909 -2.57969,0.43729 -2.57969,0.55155 0,0.11426 -5.23875,0.20775 -11.64166,0.20775 -7.58473,0 -11.64167,-0.0922 -11.64167,-0.26458 z m 8.03532,-47.226083 c -3.15776,-0.686784 -6.18687,-2.523834 -8.89482,-5.394404 -2.20478,-2.337176 -3.86701,-5.147143 -4.91458,-8.30798 -1.08542,-3.275028 -1.3653,-5.210461 -1.36767,-9.457643 -0.005,-8.560472 1.48636,-13.650919 5.05514,-17.257203 2.00778,-2.028878 4.67534,-3.472814 7.3574,-3.982518 0.88461,-0.168113 1.60838,-0.397481 1.60838,-0.509707 0,-0.112226 2.08359,-0.204047 4.63021,-0.204047 2.54661,0 4.6302,0.09182 4.6302,0.204047 0,0.112226 0.72377,0.341594 1.60838,0.509707 2.68475,0.510216 5.35001,1.95357 7.35401,3.982518 3.56705,3.611454 5.0633,8.715918 5.05853,17.257203 -0.002,4.247182 -0.28225,6.182615 -1.36767,9.457643 -3.26039,9.837581 -12.00035,15.606977 -20.75751,13.702384 z"
           style="fill:#020202;stroke-width:0.264583"
           inkscape:connector-curvature="0" />
      </g>
      <g
         style="fill:#ffffff"
         transform="matrix(0.29767194,0,0,0.29767194,7.7989559,51.96872)"
         id="g894">
        <path
           id="path896"
           d="m 117.18783,159.52775 c 0.0979,-0.44294 24.03293,-23.73833 58.34732,-56.78805 5.22504,-5.032466 9.81757,-9.672231 10.20562,-10.31059 l 0.70556,-1.160653 -1.49931,-2.785921 c -0.82462,-1.532258 -1.4993,-2.964681 -1.4993,-3.183163 0,-0.28884 4.53184,-0.397238 16.60769,-0.397238 h 16.60769 l 0.95382,0.970138 c 1.09362,1.112333 19.53233,32.382127 19.59083,33.223667 0.0345,0.49608 -1.72703,0.56451 -16.641,0.64646 -13.84735,0.0761 -16.84247,0.007 -17.63889,-0.40886 -0.68969,-0.35983 -1.9361,-2.26949 -4.43465,-6.79443 -1.91144,-3.46165 -3.75453,-6.58479 -4.09577,-6.9403 -0.59709,-0.62208 -1.32865,0.0418 -19.45521,17.65508 -10.35913,10.0658 -23.12104,22.46135 -28.35979,27.54567 l -9.525,9.24421 -9.99184,1e-5 c -8.58554,2e-5 -9.97578,-0.0726 -9.87777,-0.51603 z m 66.71696,-80.931079 c -2.36799,-0.121509 -4.45806,-0.379675 -4.64459,-0.573703 -0.18654,-0.194028 -2.8898,-4.87195 -6.00725,-10.395383 -3.8999,-6.90979 -5.55436,-10.156261 -5.30355,-10.406944 0.24038,-0.240246 6.0031,-0.364339 16.91939,-0.364339 h 16.55485 l 0.84612,0.881944 c 0.46537,0.48507 2.40172,4.183827 4.30301,8.21946 1.90129,4.035633 3.59568,7.423296 3.76532,7.52814 0.16964,0.104843 1.76902,-1.052856 3.55417,-2.572665 9.88281,-8.413839 16.08057,-13.436515 16.8456,-13.651699 1.23831,-0.348304 18.01146,-0.737131 19.17717,-0.444555 0.83907,0.210593 0.91116,0.32236 0.51544,0.799172 -0.40191,0.484276 -8.84433,7.398137 -20.30315,16.627128 -6.12223,4.930878 -3.41327,4.42373 -24.06113,4.504511 -9.82079,0.03842 -19.79342,-0.02956 -22.1614,-0.151067 z"
           style="fill:#ffffff;stroke-width:0.352778"
           inkscape:connector-curvature="0" />
      </g>
      <path
         id="path900"
         d="m 88.287117,99.485518 -0.534538,-18.8425 -1.202714,-0.801809 1.269532,0.634764 0.100224,-1.135893 0.100227,1.169302 z"
         style="fill:#ffffff;stroke:none;stroke-width:0.264583px;stroke-linecap:butt;stroke-linejoin:miter;stroke-opacity:1"
         inkscape:connector-curvature="0" />
      <path
         style="fill:#ffffff;stroke:none;stroke-width:0.264583px;stroke-linecap:butt;stroke-linejoin:miter;stroke-opacity:1"
         d="m 35.167298,99.485518 0.718856,-18.462697 c 0.0061,-0.07231 0.02819,-0.143165 0.0739,-0.192452 l 0.944493,-0.98916 c 0,0 -0.564189,0.464653 -0.977206,0.23386 -0.331811,-0.185415 -0.510668,-3.333575 -0.510668,-3.333575 0,0 0.02375,2.511925 0.01789,3.767888 -0.02953,6.325937 -0.267266,18.976136 -0.267265,18.976136 z"
         id="path902"
         inkscape:connector-curvature="0" />
    </g>
    <path
       id="path896-7"
       d="m 72.395028,33.690543 c 0.0052,-0.0245 1.345902,-1.329331 3.267581,-3.180213 0.292611,-0.281856 0.549796,-0.541661 0.571535,-0.577377 l 0.03946,-0.06447 -0.08394,-0.15614 c -0.04616,-0.0851 -0.08394,-0.165944 -0.08394,-0.178193 0,-0.01676 0.253798,-0.02192 0.930069,-0.02192 h 0.930069 l 0.05338,0.05415 c 0.06125,0.06189 1.093844,1.81349 1.097119,1.860551 0.0013,0.02837 -0.0967,0.03094 -0.931922,0.0361 -0.775488,0 -0.943221,4.34e-4 -0.987823,-0.02321 -0.03855,-0.02063 -0.108433,-0.127644 -0.248343,-0.38049 -0.107017,-0.19379 -0.210268,-0.368759 -0.229379,-0.388613 -0.03339,-0.03481 -0.07439,0 -1.089524,0.988683 -0.580134,0.563708 -1.294827,1.257905 -1.588211,1.542592 l -0.533422,0.517681 h -0.559571 c -0.480803,0 -0.558655,0 -0.553175,-0.02837 z m 3.736303,-4.532239 c -0.132621,-0.0129 -0.249671,-0.02063 -0.260117,-0.03224 -0.01031,-0.01289 -0.161826,-0.272827 -0.336418,-0.582146 -0.218394,-0.38694 -0.311048,-0.568737 -0.297006,-0.582793 0.01341,-0.0129 0.336188,-0.02063 0.947525,-0.02063 h 0.927107 l 0.04732,0.049 c 0.02605,0.02708 0.134494,0.234279 0.240985,0.4603 0.1065,0.226026 0.20136,0.415694 0.210863,0.421623 0.009,0 0.09902,-0.05931 0.199036,-0.144149 0.553462,-0.471133 0.900543,-0.752472 0.943391,-0.764464 0.06937,-0.01934 1.008678,-0.04126 1.07396,-0.0245 0.04706,0.01289 0.05106,0.01805 0.02888,0.04513 -0.02256,0.02708 -0.495295,0.414269 -1.137022,0.931177 -0.342855,0.276053 -0.191149,0.247686 -1.347474,0.252199 -0.549978,0 -1.108465,0 -1.241078,-0.0129 z"
       style="fill:#ffffff;stroke-width:0.0197562"
       inkscape:connector-curvature="0" />
    <rect
       style="fill:#000000;stroke-width:0.11491"
       id="rect1229"
       width="6.306138"
       height="1.1152859"
       x="61.048679"
       y="53.392052" />
    <rect
       style="fill:#000000;stroke-width:0.116394"
       id="rect1231"
       width="0.34895536"
       height="1.70531"
       x="64.050468"
       y="50.209137" />
    <g
       id="g1354"
       transform="matrix(0.66060271,0,0,0.66060271,30.42128,-5.0398975)"
       style="fill:#ffffff">
      <path
         id="path1093-5"
         style="fill:#ffffff;stroke-width:0.360964"
         d="m 49.624362,88.986905 c -0.407324,-1.15e-4 -0.737554,0.330114 -0.737439,0.737438 6.5e-5,0.106375 0.02315,0.211477 0.06767,0.308088 0.05072,-0.110051 0.03809,-0.386109 0.129653,-0.534468 0.12588,-0.203974 0.370506,-0.26989 0.537108,-0.26984 0.147196,9.7e-5 0.37157,0.06049 0.490364,0.234466 0.113249,0.165853 0.12295,0.4424 0.181687,0.569842 0.04452,-0.09661 0.06761,-0.201713 0.06767,-0.308088 1.15e-4,-0.407048 -0.329686,-0.737164 -0.736734,-0.737438 z"
         sodipodi:nodetypes="cccscscccc" />
      <path
         id="path1178-3"
         style="fill:#ffffff;stroke-width:0.341541"
         d="m 52.606479,89.015034 c -0.385405,-1.08e-4 -0.697865,0.312353 -0.697756,0.697758 6.2e-5,0.100651 0.02191,0.200097 0.06403,0.29151 0.05438,-0.11798 0.05096,-0.387632 0.157456,-0.535033 0.116725,-0.161559 0.347129,-0.195954 0.489515,-0.195912 0.151111,9.9e-5 0.388374,0.06052 0.501906,0.235557 0.09086,0.140094 0.06727,0.38555 0.117896,0.495388 0.04213,-0.09141 0.06398,-0.190857 0.06405,-0.29151 1.09e-4,-0.385148 -0.311948,-0.697501 -0.697096,-0.697758 z"
         sodipodi:nodetypes="sccscsccss" />
    </g>
    <ellipse
       style="fill:#020202;stroke-width:0.165;fill-opacity:1"
       id="path1522"
       cx="64.208839"
       cy="49.855709"
       rx="0.48186275"
       ry="0.46411276" />
  </g>
</svg>
