<?xml version="1.0" encoding="UTF-8" standalone="no"?>
<!-- Created with Inkscape (http://www.inkscape.org/) -->

<svg
   width="56.332596mm"
   height="26.273827mm"
   viewBox="0 0 56.332596 26.273827"
   version="1.1"
   id="svg5"
   inkscape:version="1.1 (c4e8f9e, 2021-05-24)"
   sodipodi:docname="laser robot cuantos.svg"
   xmlns:inkscape="http://www.inkscape.org/namespaces/inkscape"
   xmlns:sodipodi="http://sodipodi.sourceforge.net/DTD/sodipodi-0.dtd"
   xmlns="http://www.w3.org/2000/svg"
   xmlns:svg="http://www.w3.org/2000/svg">
  <sodipodi:namedview
     id="namedview7"
     pagecolor="#ffffff"
     bordercolor="#666666"
     borderopacity="1.0"
     inkscape:pageshadow="2"
     inkscape:pageopacity="0.0"
     inkscape:pagecheckerboard="0"
     inkscape:document-units="mm"
     showgrid="false"
     inkscape:zoom="2.139236"
     inkscape:cx="47.446845"
     inkscape:cy="21.97046"
     inkscape:window-width="1920"
     inkscape:window-height="1015"
     inkscape:window-x="0"
     inkscape:window-y="0"
     inkscape:window-maximized="1"
     inkscape:current-layer="layer1"
     fit-margin-top="0"
     fit-margin-left="0"
     fit-margin-right="0"
     fit-margin-bottom="0" />
  <defs
     id="defs2" />
  <g
     inkscape:label="Capa 1"
     inkscape:groupmode="layer"
     id="layer1"
     transform="translate(-44.025723,-13.852056)">
    <rect
       style="fill:#000000;stroke-width:0.264583"
       id="rect501"
       width="15.644617"
       height="15.555712"
       x="12.612974"
       y="4.1445241" />
    <rect
       style="fill:#000000;stroke-width:0.264583"
       id="rect503"
       width="20.575823"
       height="3.9828701"
       x="10.32601"
       y="11.238799" />
    <g
       id="g1182"
       transform="translate(-53.736284,-7.2196065)">
      <path
         id="path1093"
         style="fill:#ffffff;stroke-width:0.999999"
         d="m 268.41406,80.398438 a 2.0423921,2.0423921 0 0 0 -2.04297,2.042968 2.0423921,2.0423921 0 0 0 0.1875,0.853516 2.0423921,2.0423921 0 0 1 1.85547,-1.1875 2.0423921,2.0423921 0 0 1 1.85352,1.1875 2.0423921,2.0423921 0 0 0 0.1875,-0.853516 2.0423921,2.0423921 0 0 0 -2.04102,-2.042968 z"
         transform="scale(0.26458333)" />
      <path
         id="path1178"
         style="fill:#ffffff;stroke-width:0.264583"
         d="m 76.920331,21.272086 a 0.5403829,0.5403829 0 0 0 -0.540535,0.540536 0.5403829,0.5403829 0 0 0 0.04961,0.225826 0.5403829,0.5403829 0 0 1 0.490926,-0.314193 0.5403829,0.5403829 0 0 1 0.490411,0.314193 0.5403829,0.5403829 0 0 0 0.04961,-0.225826 0.5403829,0.5403829 0 0 0 -0.54002,-0.540536 z" />
    </g>
    <rect
       style="fill:#000000;stroke-width:0.398347"
       id="rect1184"
       width="23.553982"
       height="7.209199"
       x="8.6582928"
       y="19.469992" />
    <rect
       style="fill:#000000;stroke:none;stroke-width:0.264583"
       id="rect2331"
       width="1.327392"
       height="4.3435349"
       x="19.470747"
       y="0.4053646" />
    <rect
       style="fill:#000000;stroke:none;stroke-width:0.264583"
       id="rect2333"
       width="6.2274008"
       height="3.3899622"
       x="17.012167"
       y="2.3348956" />
    <g
       aria-label="cuantos?"
       id="text3452"
       style="font-size:6.31966px;line-height:1.25;stroke-width:0.157992"
       transform="translate(-7.2713128,-4.3561624)">
      <path
         d="m 73.117212,26.621376 q -0.448696,0 -0.802597,-0.18327 -0.347582,-0.18327 -0.549811,-0.568769 -0.195909,-0.385499 -0.195909,-0.985867 0,-0.625646 0.208549,-1.017465 0.208548,-0.391819 0.562449,-0.575089 0.360221,-0.183271 0.815236,-0.183271 0.259107,0 0.499254,0.05688 0.240147,0.05056 0.391819,0.126394 l -0.170631,0.461335 q -0.151672,-0.05688 -0.353901,-0.107434 -0.202229,-0.05056 -0.37918,-0.05056 -0.998506,0 -0.998506,1.282891 0,0.613007 0.240147,0.94163 0.246467,0.322302 0.726761,0.322302 0.278065,0 0.486614,-0.05688 0.214868,-0.05688 0.391819,-0.139032 v 0.492933 q -0.170631,0.08848 -0.37918,0.132713 -0.202229,0.05056 -0.492933,0.05056 z"
         id="path8077" />
      <path
         d="m 77.623126,23.170842 v 3.387338 h -0.455015 l -0.08216,-0.448696 h -0.02528 q -0.164312,0.265426 -0.455016,0.391819 -0.290704,0.120073 -0.619327,0.120073 -0.613007,0 -0.92267,-0.290704 -0.309663,-0.297024 -0.309663,-0.941629 v -2.218201 h 0.562449 v 2.180283 q 0,0.808916 0.75204,0.808916 0.56245,0 0.777318,-0.315983 0.221188,-0.315983 0.221188,-0.910031 v -1.763185 z"
         id="path8079" />
      <path
         d="m 79.980348,23.113965 q 0.619326,0 0.91635,0.271745 0.297024,0.271746 0.297024,0.865794 V 26.55818 H 80.789264 L 80.68183,26.077886 h -0.02528 q -0.221188,0.278065 -0.467655,0.410778 -0.240147,0.132712 -0.669884,0.132712 -0.461335,0 -0.764678,-0.240147 -0.303344,-0.246466 -0.303344,-0.764679 0,-0.505572 0.398138,-0.777318 0.398139,-0.278065 1.226015,-0.303343 l 0.575089,-0.01896 V 24.3147 q 0,-0.423417 -0.183271,-0.587728 -0.18327,-0.164311 -0.518212,-0.164311 -0.265425,0 -0.505573,0.08216 -0.240147,0.07584 -0.448695,0.17695 l -0.17063,-0.417102 q 0.221188,-0.120073 0.524532,-0.202229 0.303343,-0.08847 0.631966,-0.08847 z m 0.663564,1.788464 -0.499253,0.01896 q -0.631966,0.02528 -0.878433,0.202229 -0.240147,0.17695 -0.240147,0.499253 0,0.284385 0.170631,0.417098 0.17695,0.132713 0.448696,0.132713 0.429737,0 0.714121,-0.233828 0.284385,-0.240147 0.284385,-0.73308 z"
         id="path8081" />
      <path
         d="m 83.873252,23.107645 q 0.606687,0 0.916351,0.297024 0.309663,0.290705 0.309663,0.947949 v 2.205562 h -0.549811 v -2.167644 q 0,-0.815236 -0.758359,-0.815236 -0.56245,0 -0.777318,0.315983 -0.214868,0.315983 -0.214868,0.910031 v 1.756866 h -0.556131 v -3.387338 h 0.448696 l 0.08216,0.461335 h 0.0316 q 0.164311,-0.265426 0.455016,-0.391819 0.290704,-0.132713 0.613007,-0.132713 z"
         id="path8083" />
      <path
         d="m 87.279536,26.166361 q 0.126393,0 0.259106,-0.01896 0.132713,-0.02528 0.214869,-0.05056 v 0.423417 q -0.08848,0.04424 -0.252787,0.06952 -0.164311,0.0316 -0.315983,0.0316 -0.265425,0 -0.492933,-0.08848 -0.221188,-0.09479 -0.360221,-0.322302 -0.139032,-0.227508 -0.139032,-0.638286 V 23.600576 H 85.712261 V 23.33515 l 0.486613,-0.221188 0.221188,-0.720441 h 0.328623 v 0.777318 h 0.979547 v 0.429737 h -0.979547 v 1.959095 q 0,0.309663 0.145352,0.461335 0.151672,0.145352 0.385499,0.145352 z"
         id="path8085" />
      <path
         d="m 91.374665,24.858191 q 0,0.840515 -0.429737,1.30185 -0.423417,0.461335 -1.150178,0.461335 -0.448696,0 -0.802597,-0.202229 -0.347581,-0.208548 -0.54981,-0.600367 -0.202229,-0.398139 -0.202229,-0.960589 0,-0.840515 0.423417,-1.29553 0.423417,-0.455016 1.150178,-0.455016 0.461335,0 0.808917,0.208549 0.353901,0.202229 0.54981,0.594048 0.202229,0.3855 0.202229,0.947949 z m -2.559462,0 q 0,0.600368 0.233827,0.954269 0.240147,0.347581 0.758359,0.347581 0.511893,0 0.75204,-0.347581 0.240147,-0.353901 0.240147,-0.954269 0,-0.600367 -0.240147,-0.941629 Q 90.319282,23.5753 89.80107,23.5753 q -0.518212,0 -0.75204,0.341262 -0.233827,0.341262 -0.233827,0.941629 z"
         id="path8087" />
      <path
         d="m 94.458656,25.62287 q 0,0.492934 -0.36654,0.74572 -0.366541,0.252786 -0.985867,0.252786 -0.353901,0 -0.613007,-0.05688 -0.252787,-0.05688 -0.448696,-0.157992 v -0.505573 q 0.202229,0.101115 0.486613,0.18959 0.290705,0.08216 0.587729,0.08216 0.423417,0 0.613007,-0.132713 0.18959,-0.139033 0.18959,-0.366541 0,-0.126393 -0.06952,-0.227507 -0.06952,-0.101115 -0.252786,-0.202229 -0.17695,-0.101115 -0.511892,-0.227508 -0.328623,-0.126393 -0.56245,-0.252787 -0.233828,-0.126393 -0.360221,-0.303343 -0.126393,-0.176951 -0.126393,-0.455016 0,-0.429737 0.347581,-0.663564 0.353901,-0.233828 0.922671,-0.233828 0.309663,0 0.575089,0.0632 0.271745,0.05688 0.505573,0.164311 l -0.18959,0.442376 q -0.214869,-0.08848 -0.448696,-0.151671 -0.233828,-0.0632 -0.480294,-0.0632 -0.341262,0 -0.524532,0.113754 -0.176951,0.107434 -0.176951,0.297024 0,0.139032 0.08216,0.240147 0.08216,0.0948 0.271745,0.18959 0.19591,0.08848 0.518213,0.214868 0.322302,0.120074 0.54981,0.246467 0.227508,0.126393 0.347581,0.309663 0.120074,0.176951 0.120074,0.448696 z"
         id="path8089" />
      <path
         d="m 95.627781,25.287928 v -0.170631 q 0,-0.240147 0.04424,-0.410778 0.05056,-0.17695 0.164311,-0.334942 0.120073,-0.157991 0.322303,-0.328622 0.246466,-0.208549 0.379179,-0.347581 0.139033,-0.139033 0.19591,-0.271746 0.05688,-0.132712 0.05688,-0.322302 0,-0.303344 -0.19591,-0.467655 -0.195909,-0.164311 -0.568769,-0.164311 -0.309664,0 -0.549811,0.08215 -0.240147,0.07584 -0.461335,0.18327 L 94.81887,22.292404 q 0.252786,-0.132713 0.55613,-0.221188 0.309663,-0.08848 0.688843,-0.08848 0.600367,0 0.92899,0.297024 0.328622,0.297024 0.328622,0.808916 0,0.284385 -0.0948,0.486614 -0.08847,0.19591 -0.259106,0.366541 -0.164311,0.164311 -0.391819,0.353901 -0.208549,0.17695 -0.322303,0.309663 -0.107434,0.132713 -0.145352,0.265426 -0.03792,0.126393 -0.03792,0.309663 v 0.107434 z m -0.145352,0.92899 q 0,-0.233827 0.107434,-0.328622 0.113754,-0.0948 0.284385,-0.0948 0.157991,0 0.271745,0.0948 0.113754,0.0948 0.113754,0.328622 0,0.227508 -0.113754,0.328623 -0.113754,0.101114 -0.271745,0.101114 -0.170631,0 -0.284385,-0.101114 -0.107434,-0.101115 -0.107434,-0.328623 z"
         id="path8091" />
    </g>
    <path
       style="fill:none;stroke:#000000;stroke-width:0.264583px;stroke-linecap:butt;stroke-linejoin:miter;stroke-opacity:1"
       d="m 60.446796,27.015581 1.451999,-2.74911 2.67534,-9.842465 27.881574,1.223164 0.492148,9.68765 -28.556245,0.135208 z"
       id="path7797" />
    <g
       id="g3126"
       transform="matrix(1.3506422,0,0,1.3506422,-32.645909,-48.84959)">
      <g
         transform="matrix(0.14591219,0,0,0.14591219,55.145648,49.195696)"
         id="layer1-6">
        <path
           id="path875"
           d="m 52.004429,57.681013 7.556788,4.362913 -0.799184,0.9789 -6.709077,-3.189173 z"
           style="fill:#b3b3b3;fill-opacity:1;stroke:none;stroke-width:0.264583px;stroke-linecap:butt;stroke-linejoin:miter;stroke-opacity:1"
           inkscape:connector-curvature="0" />
        <g
           transform="translate(-145.5862,-24.623108)"
           id="g844">
          <path
             id="path846"
             d="m 196.50489,127.59108 c 0,-0.14553 -0.38695,-0.26497 -0.85989,-0.26543 -1.22817,-10e-4 -5.18076,-0.71443 -8.26587,-1.49153 -6.90363,-1.73893 -12.86285,-5.00851 -14.34199,-7.86885 -0.83712,-1.6188 0.0157,-15.14755 1.25287,-19.875235 1.57204,-6.007312 4.89135,-9.766948 10.91694,-12.365135 2.17552,-0.938064 7.33122,-2.419131 10.84862,-3.116456 l 1.53506,-0.304323 1.37536,1.061026 c 2.57948,1.98995 5.37326,2.824869 9.31286,2.783136 3.41859,-0.03621 6.17979,-0.8872 8.46146,-2.607773 0.87026,-0.656251 1.61251,-1.193183 1.64943,-1.193183 0.0369,0 1.52755,0.308007 3.3125,0.684459 10.36453,2.185923 15.66,5.350758 18.44895,11.026017 1.93506,3.937675 2.50754,7.129777 2.96596,16.538167 0.28168,5.7812 0.27022,6.50987 -0.11515,7.318 -0.45252,0.94894 -3.22482,3.31781 -5.22211,4.46219 -3.2945,1.88762 -10.33305,4.04331 -15.41198,4.7202 -1.41883,0.18909 -2.57969,0.43729 -2.57969,0.55155 0,0.11426 -5.23875,0.20775 -11.64166,0.20775 -7.58473,0 -11.64167,-0.0922 -11.64167,-0.26458 z m 8.03532,-47.226083 c -3.15776,-0.686784 -6.18687,-2.523834 -8.89482,-5.394404 -2.20478,-2.337176 -3.86701,-5.147143 -4.91458,-8.30798 -1.08542,-3.275028 -1.3653,-5.210461 -1.36767,-9.457643 -0.005,-8.560472 1.48636,-13.650919 5.05514,-17.257203 2.00778,-2.028878 4.67534,-3.472814 7.3574,-3.982518 0.88461,-0.168113 1.60838,-0.397481 1.60838,-0.509707 0,-0.112226 2.08359,-0.204047 4.63021,-0.204047 2.54661,0 4.6302,0.09182 4.6302,0.204047 0,0.112226 0.72377,0.341594 1.60838,0.509707 2.68475,0.510216 5.35001,1.95357 7.35401,3.982518 3.56705,3.611454 5.0633,8.715918 5.05853,17.257203 -0.002,4.247182 -0.28225,6.182615 -1.36767,9.457643 -3.26039,9.837581 -12.00035,15.606977 -20.75751,13.702384 z"
             style="fill:#020202;stroke-width:0.264583"
             inkscape:connector-curvature="0" />
        </g>
        <g
           style="fill:#ffffff"
           transform="matrix(0.29767194,0,0,0.29767194,7.7989559,51.96872)"
           id="g894">
          <path
             id="path896"
             d="m 117.18783,159.52775 c 0.0979,-0.44294 24.03293,-23.73833 58.34732,-56.78805 5.22504,-5.032466 9.81757,-9.672231 10.20562,-10.31059 l 0.70556,-1.160653 -1.49931,-2.785921 c -0.82462,-1.532258 -1.4993,-2.964681 -1.4993,-3.183163 0,-0.28884 4.53184,-0.397238 16.60769,-0.397238 h 16.60769 l 0.95382,0.970138 c 1.09362,1.112333 19.53233,32.382127 19.59083,33.223667 0.0345,0.49608 -1.72703,0.56451 -16.641,0.64646 -13.84735,0.0761 -16.84247,0.007 -17.63889,-0.40886 -0.68969,-0.35983 -1.9361,-2.26949 -4.43465,-6.79443 -1.91144,-3.46165 -3.75453,-6.58479 -4.09577,-6.9403 -0.59709,-0.62208 -1.32865,0.0418 -19.45521,17.65508 -10.35913,10.0658 -23.12104,22.46135 -28.35979,27.54567 l -9.525,9.24421 -9.99184,1e-5 c -8.58554,2e-5 -9.97578,-0.0726 -9.87777,-0.51603 z m 66.71696,-80.931079 c -2.36799,-0.121509 -4.45806,-0.379675 -4.64459,-0.573703 -0.18654,-0.194028 -2.8898,-4.87195 -6.00725,-10.395383 -3.8999,-6.90979 -5.55436,-10.156261 -5.30355,-10.406944 0.24038,-0.240246 6.0031,-0.364339 16.91939,-0.364339 h 16.55485 l 0.84612,0.881944 c 0.46537,0.48507 2.40172,4.183827 4.30301,8.21946 1.90129,4.035633 3.59568,7.423296 3.76532,7.52814 0.16964,0.104843 1.76902,-1.052856 3.55417,-2.572665 9.88281,-8.413839 16.08057,-13.436515 16.8456,-13.651699 1.23831,-0.348304 18.01146,-0.737131 19.17717,-0.444555 0.83907,0.210593 0.91116,0.32236 0.51544,0.799172 -0.40191,0.484276 -8.84433,7.398137 -20.30315,16.627128 -6.12223,4.930878 -3.41327,4.42373 -24.06113,4.504511 -9.82079,0.03842 -19.79342,-0.02956 -22.1614,-0.151067 z"
             style="fill:#ffffff;stroke-width:0.352778"
             inkscape:connector-curvature="0" />
        </g>
        <path
           id="path900"
           d="m 88.287117,99.485518 -0.534538,-18.8425 -1.202714,-0.801809 1.269532,0.634764 0.100224,-1.135893 0.100227,1.169302 z"
           style="fill:#ffffff;stroke:none;stroke-width:0.264583px;stroke-linecap:butt;stroke-linejoin:miter;stroke-opacity:1"
           inkscape:connector-curvature="0" />
        <path
           style="fill:#ffffff;stroke:none;stroke-width:0.264583px;stroke-linecap:butt;stroke-linejoin:miter;stroke-opacity:1"
           d="m 35.167298,99.485518 0.718856,-18.462697 c 0.0061,-0.07231 0.02819,-0.143165 0.0739,-0.192452 l 0.944493,-0.98916 c 0,0 -0.564189,0.464653 -0.977206,0.23386 -0.331811,-0.185415 -0.510668,-3.333575 -0.510668,-3.333575 0,0 0.02375,2.511925 0.01789,3.767888 -0.02953,6.325937 -0.267266,18.976136 -0.267265,18.976136 z"
           id="path902"
           inkscape:connector-curvature="0" />
      </g>
      <rect
         style="fill:#000000;stroke-width:0.11491"
         id="rect1229"
         width="6.306138"
         height="1.1152859"
         x="61.048679"
         y="53.392052" />
      <rect
         style="fill:#000000;stroke-width:0.116394"
         id="rect1231"
         width="0.34895536"
         height="1.70531"
         x="64.050468"
         y="50.209137" />
      <g
         id="g1354"
         transform="matrix(0.66060271,0,0,0.66060271,30.42128,-5.0398975)"
         style="fill:#ffffff" />
      <ellipse
         style="fill:#020202;fill-opacity:1;stroke-width:0.165"
         id="path1522"
         cx="64.208839"
         cy="49.855709"
         rx="0.48186275"
         ry="0.46411276" />
    </g>
    <ellipse
       style="fill:#ffffff;stroke-width:0.165"
       id="path4318"
       cx="55.352982"
       cy="24.456244"
       rx="0.38951555"
       ry="0.39647248" />
    <ellipse
       style="fill:#ffffff;stroke-width:0.165"
       id="path4318-5"
       cx="52.704548"
       cy="24.452236"
       rx="0.38951555"
       ry="0.39647248" />
    <path
       id="path1093-5"
       style="fill:#000000;stroke-width:0.322066"
       d="m 52.670838,24.639197 c -0.36343,-1.02e-4 -0.658074,0.294541 -0.657971,0.65797 5.8e-5,0.09491 0.02065,0.188688 0.06038,0.274888 0.04525,-0.09819 0.03399,-0.344501 0.115682,-0.476872 0.112315,-0.181994 0.330579,-0.240806 0.479228,-0.240762 0.131334,8.7e-5 0.331529,0.05397 0.437521,0.2092 0.101045,0.14798 0.109701,0.394726 0.162108,0.508434 0.03972,-0.0862 0.06032,-0.179976 0.06038,-0.274888 1.03e-4,-0.363183 -0.294158,-0.657725 -0.657342,-0.65797 z"
       sodipodi:nodetypes="cccscscccc" />
    <path
       id="path1178-3"
       style="fill:#000000;stroke-width:0.304736"
       d="m 55.331595,24.664295 c -0.343873,-9.6e-5 -0.622661,0.278693 -0.622564,0.622566 5.5e-5,0.08981 0.01955,0.178534 0.05713,0.260097 0.04852,-0.105267 0.04547,-0.34586 0.140488,-0.477377 0.104147,-0.144149 0.309722,-0.174838 0.436764,-0.1748 0.134827,8.8e-5 0.346522,0.054 0.44782,0.210173 0.08107,0.124997 0.06002,0.344002 0.105191,0.442004 0.03759,-0.08156 0.05709,-0.17029 0.05715,-0.260097 9.7e-5,-0.343643 -0.278332,-0.622337 -0.621976,-0.622566 z"
       sodipodi:nodetypes="sccscsccss" />
  </g>
</svg>
