<?xml version="1.0" encoding="UTF-8" standalone="no"?>
<!-- Created with Inkscape (http://www.inkscape.org/) -->

<svg
   xmlns:dc="http://purl.org/dc/elements/1.1/"
   xmlns:cc="http://creativecommons.org/ns#"
   xmlns:rdf="http://www.w3.org/1999/02/22-rdf-syntax-ns#"
   xmlns:svg="http://www.w3.org/2000/svg"
   xmlns="http://www.w3.org/2000/svg"
   xmlns:sodipodi="http://sodipodi.sourceforge.net/DTD/sodipodi-0.dtd"
   xmlns:inkscape="http://www.inkscape.org/namespaces/inkscape"
   width="136.73666mm"
   height="72.136002mm"
   viewBox="0 0 136.73666 72.136002"
   version="1.1"
   id="svg882"
   inkscape:version="0.92.5 (2060ec1f9f, 2020-04-08)"
   sodipodi:docname="logo.svg">
  <defs
     id="defs876" />
  <sodipodi:namedview
     id="base"
     pagecolor="#ffffff"
     bordercolor="#666666"
     borderopacity="1.0"
     inkscape:pageopacity="0.0"
     inkscape:pageshadow="2"
     inkscape:zoom="0.35"
     inkscape:cx="-360.17145"
     inkscape:cy="-157.9657"
     inkscape:document-units="mm"
     inkscape:current-layer="layer1"
     showgrid="false"
     fit-margin-top="0"
     fit-margin-left="0"
     fit-margin-right="0"
     fit-margin-bottom="0"
     inkscape:window-width="1880"
     inkscape:window-height="1024"
     inkscape:window-x="0"
     inkscape:window-y="0"
     inkscape:window-maximized="1" />
  <metadata
     id="metadata879">
    <rdf:RDF>
      <cc:Work
         rdf:about="">
        <dc:format>image/svg+xml</dc:format>
        <dc:type
           rdf:resource="http://purl.org/dc/dcmitype/StillImage" />
        <dc:title></dc:title>
      </cc:Work>
    </rdf:RDF>
  </metadata>
  <g
     inkscape:label="Capa 1"
     inkscape:groupmode="layer"
     id="layer1"
     transform="translate(-20.078101,-34.902241)">
    <g
       id="g830"
       transform="translate(100.37673,117.51083)"
       style="fill:#ffffff"
       inkscape:export-filename="/home/fer/Documentos/bubu/logo.png"
       inkscape:export-xdpi="39.436619"
       inkscape:export-ydpi="39.436619">
      <path
         style="fill:#ffffff;stroke-width:0.08466667"
         d="m 18.507363,-46.540588 v -36.068001 h 0.592667 0.592666 v 36.068001 36.068001 H 19.10003 18.507363 Z m -90.976963,29.95169 c -0.02217,-0.05868 -0.0497,-6.583689 -0.06117,-14.500023 l -0.02086,-14.393334 -3.873499,-0.02202 -3.8735,-0.02202 v -3.343127 -3.343126 l 9.839063,-0.02152 9.839064,-0.02152 2.503839,-10.117667 c 1.377113,-5.564717 2.533433,-10.165292 2.5696,-10.2235 0.05115,-0.08233 0.985009,-0.105834 4.204433,-0.105834 2.288639,0 4.159238,0.03327 4.184677,0.07444 0.08383,0.135633 7.403636,36.027563 7.361407,36.095892 -0.06179,0.09997 -6.191382,0.08433 -6.253361,-0.01595 -0.0282,-0.04563 -0.393938,-1.864901 -0.812756,-4.042833 -0.418817,-2.177934 -0.797228,-4.045603 -0.840912,-4.150378 l -0.07943,-0.1905 h -4.902115 c -3.821956,0 -4.920001,0.02332 -4.983286,0.105833 -0.04464,0.05821 -0.469493,1.877484 -0.944111,4.042834 -0.474618,2.16535 -0.899139,4.022725 -0.943381,4.1275 l -0.08044,0.1905 h -2.41481 c -2.034651,0 -2.414816,-0.01901 -2.414816,-0.120765 0,-0.06642 0.47625,-2.052702 1.058334,-4.413958 0.582083,-2.361256 1.058333,-4.346368 1.058333,-4.41136 0,-0.09635 -0.207081,-0.113805 -1.121833,-0.09454 l -1.121834,0.02362 -0.04233,14.478001 -0.04233,14.478 -3.875829,0.02202 c -3.055656,0.01736 -3.884358,-5.93e-4 -3.916138,-0.08467 z m 23.274336,-35.859538 c 0.04739,-0.07668 -2.954274,-13.846661 -3.084658,-14.150697 -0.07459,-0.173919 -0.104134,-0.186478 -0.199208,-0.08467 -0.133745,0.143223 -3.297141,14.097936 -3.223042,14.217831 0.06178,0.09996 6.445336,0.117157 6.506908,0.01753 z m 25.663727,18.760422 c -0.02338,-0.06093 -0.03252,-1.558454 -0.0203,-3.327841 l 0.0222,-3.217066 0.408809,-0.02608 c 0.353095,-0.02252 0.415019,-0.0023 0.454375,0.148166 0.05645,0.21588 0.03933,0.217424 0.414871,-0.03742 0.630707,-0.42801 1.243951,-0.22759 1.614866,0.527766 0.225884,0.460005 0.239746,0.551872 0.239746,1.5889 0,1.035207 -0.01416,1.1295 -0.238069,1.585473 -0.395544,0.805493 -0.963917,1.086844 -1.570517,0.777426 -0.169444,-0.08643 -0.335531,-0.170466 -0.36908,-0.186745 -0.03355,-0.01628 -0.07165,0.478027 -0.08467,1.098458 l -0.02367,1.128055 -0.40303,0.02584 c -0.273567,0.01754 -0.416686,-0.0097 -0.445539,-0.08493 z m 1.906163,-3.102142 c 0.280213,-0.280213 0.376887,-0.750936 0.324189,-1.578533 -0.04976,-0.781537 -0.427794,-1.151908 -0.911501,-0.893035 -0.55071,0.294731 -0.576559,2.300367 -0.03372,2.615916 0.243907,0.14178 0.362453,0.114226 0.621027,-0.144348 z m -4.535674,1.101362 c -0.351682,-0.220879 -0.501253,-0.616788 -0.501253,-1.326794 0,-0.958216 0.30031,-1.307485 1.304274,-1.516914 0.577082,-0.12038 0.705604,-0.292964 0.46012,-0.617868 -0.144553,-0.191318 -0.241689,-0.23468 -0.514127,-0.229514 -0.199164,0.0038 -0.439736,0.08031 -0.590975,0.187999 -0.14029,0.09989 -0.279347,0.157354 -0.309016,0.127685 -0.02967,-0.02967 -0.05394,-0.256165 -0.05394,-0.503325 0,-0.420061 0.0177,-0.458536 0.271341,-0.589696 0.43069,-0.222719 1.240195,-0.248083 1.555769,-0.04875 0.524417,0.331255 0.58589,0.608254 0.58589,2.640047 v 1.820333 l -0.33529,0.02734 c -0.244375,0.01993 -0.364735,-0.01293 -0.443883,-0.121171 -0.102127,-0.139668 -0.120735,-0.137103 -0.312555,0.0431 -0.28411,0.266908 -0.785667,0.315217 -1.116352,0.107525 z m 1.214522,-1.197098 c 0.13472,-0.200557 0.189264,-0.388427 0.172068,-0.592667 -0.02414,-0.286666 -0.03743,-0.297883 -0.32151,-0.271325 -0.162983,0.01524 -0.378748,0.08062 -0.479476,0.145298 -0.256487,0.164688 -0.333894,0.582654 -0.157706,0.851551 0.198678,0.303221 0.531451,0.247017 0.786624,-0.132857 z m 6.46272,1.24489 c -0.361441,-0.185751 -0.530877,-0.510637 -0.579004,-1.110216 -0.05456,-0.679682 0.126853,-1.236177 0.486454,-1.492235 0.132601,-0.09442 0.482059,-0.220235 0.776573,-0.27959 0.492542,-0.09926 0.537688,-0.12692 0.562995,-0.344885 0.06303,-0.542866 -0.552046,-0.734502 -1.120125,-0.348993 -0.17155,0.116417 -0.329266,0.211667 -0.350482,0.211667 -0.02121,0 -0.03857,-0.227622 -0.03857,-0.505826 0,-0.480459 0.01322,-0.51266 0.263526,-0.642101 0.14494,-0.07495 0.462658,-0.156827 0.70604,-0.181946 0.596385,-0.06155 1.008107,0.135175 1.257157,0.60069 0.175352,0.327763 0.186277,0.45494 0.186277,2.168516 v 1.820333 l -0.335291,0.02734 c -0.234949,0.01916 -0.365232,-0.01361 -0.435344,-0.109494 -0.0903,-0.123491 -0.130993,-0.115837 -0.417358,0.0785 -0.347284,0.235673 -0.648912,0.269583 -0.962845,0.108247 z m 1.079339,-1.123078 c 0.196791,-0.25018 0.322813,-0.864726 0.202082,-0.985458 -0.05384,-0.05384 -0.203617,-0.05015 -0.429047,0.01055 -0.547974,0.147554 -0.759731,0.594007 -0.474736,1.000896 0.17618,0.251531 0.492623,0.239812 0.701701,-0.02599 z m 3.865499,1.107832 c -1.155108,-0.424913 -1.420593,-2.355386 -0.462437,-3.362617 0.18449,-0.19394 0.335437,-0.372487 0.335437,-0.396772 0,-0.02429 -0.08518,-0.218109 -0.189288,-0.43072 -0.135234,-0.276174 -0.18768,-0.531632 -0.183656,-0.894564 0.0101,-0.91111 0.448642,-1.396367 1.261944,-1.396367 0.821476,0 1.259571,0.490575 1.252922,1.403009 -0.004,0.552569 -0.09356,0.794098 -0.426958,1.151802 l -0.211679,0.227111 0.290672,0.365556 c 0.15987,0.201055 0.356705,0.471545 0.437411,0.601087 0.08071,0.129542 0.182664,0.213328 0.226573,0.186191 0.158965,-0.09825 0.362911,-1.03035 0.379415,-1.734056 l 0.01688,-0.719666 h 0.372051 0.372051 l 0.02527,0.633571 c 0.03081,0.772248 -0.150945,1.639296 -0.497032,2.371095 -0.255183,0.539584 -0.255609,0.542975 -0.09543,0.758337 0.125674,0.168973 0.247964,0.222015 0.558625,0.242302 l 0.397729,0.02597 -0.02525,0.479196 c -0.0252,0.478325 -0.02583,0.479333 -0.345609,0.554614 -0.394281,0.09282 -0.74232,-0.03452 -1.030555,-0.37707 -0.229892,-0.273212 -0.396473,-0.305928 -0.559221,-0.10983 -0.347299,0.418469 -1.321169,0.634694 -1.899864,0.421818 z m 1.100667,-1.052908 c 0.186267,-0.08554 0.412001,-0.23793 0.501631,-0.338659 0.152258,-0.17111 0.154246,-0.2011 0.03025,-0.456458 -0.198928,-0.40968 -0.628823,-0.969381 -0.861821,-1.122048 -0.274845,-0.180085 -0.501367,-0.04181 -0.741084,0.452361 -0.252461,0.520446 -0.183411,1.06819 0.175033,1.388459 0.308335,0.275497 0.438199,0.286563 0.895988,0.07635 z m -0.04141,-3.502598 c 0.214325,-0.351519 0.21246,-0.577325 -0.0071,-0.856416 -0.216767,-0.275574 -0.285805,-0.277498 -0.548036,-0.01527 -0.238486,0.238485 -0.258441,0.438465 -0.08514,0.853234 0.160351,0.383776 0.413064,0.391057 0.640248,0.01845 z m 8.0424049,4.593166 c -0.116417,-0.03728 -0.445127,-0.07158 -0.730467,-0.07623 -0.303325,-0.0049 -0.554355,-0.0524 -0.604407,-0.114273 -0.04709,-0.05821 -0.134245,-0.334433 -0.1936899,-0.613833 -0.05944,-0.2794 -0.14455,-0.555625 -0.189125,-0.613833 -0.102855,-0.134315 -1.464151,-0.147093 -1.546089,-0.01451 -0.03104,0.05022 -0.119782,0.36455 -0.197202,0.6985 l -0.140764,0.60718 -0.485128,0.02539 c -0.340451,0.01782 -0.485128,-0.0056 -0.485128,-0.07843 0,-0.130067 1.520886,-6.096426 1.577316,-6.187732 0.06808,-0.110147 0.934162,-0.07716 1.022263,0.03894 0.04417,0.05821 0.374908,1.266929 0.7349689,2.686046 0.36006,1.419117 0.673556,2.599113 0.696657,2.622215 0.0231,0.0231 0.07405,-0.0098 0.113212,-0.07322 0.05808,-0.09398 0.144207,-0.07988 0.467153,0.07645 0.315158,0.152565 0.4508451,0.176029 0.6650211,0.115002 0.219229,-0.06247 0.273885,-0.12575 0.295042,-0.341596 0.02802,-0.285935 -0.0088,-0.323818 -0.7716181,-0.793735 -0.518453,-0.319383 -0.681439,-0.678243 -0.635526,-1.399295 0.05801,-0.911075 0.60207,-1.372304 1.5152381,-1.284561 0.552752,0.05311 0.670273,0.167742 0.670273,0.653778 0,0.219371 -0.02388,0.422736 -0.05307,0.451923 -0.02919,0.02919 -0.160646,-0.0026 -0.292129,-0.07055 -0.289789,-0.149856 -0.684803,-0.160424 -0.823203,-0.02202 -0.05588,0.05588 -0.1016,0.209218 -0.1016,0.340751 0,0.19489 0.07269,0.281857 0.392744,0.4699 0.216009,0.126912 0.497734,0.316474 0.626055,0.421249 0.128321,0.104775 0.252811,0.1905 0.276645,0.1905 0.02383,0 0.06859,-0.200025 0.09947,-0.4445 0.166712,-1.32005 0.751293,-2.010833 1.70168595,-2.010833 0.709404,0 1.38786,0.590271 1.526232,1.327855 0.05718,0.304794 0.180621,0.36892 0.255337,0.132645 0.24448405,-0.773132 0.73290005,-1.324837 1.26047505,-1.423811 0.377983,-0.07091 0.937849,-0.0022 1.1036765,0.1354 0.08279,0.06871 0.123679,0.267164 0.123679,0.600278 0,0.5296 -0.07075,0.598831 -0.3760145,0.367941 -0.629604,-0.476209 -1.401729,0.406762 -1.298168,1.484533 0.04666,0.485572 0.213519,0.826475 0.513049,1.048173 0.229734,0.170038 0.246541,0.170787 0.646364,0.02878 0.225773,-0.08019 0.4339575,-0.145796 0.4626325,-0.145796 0.02868,0 0.05214,0.208672 0.05214,0.463715 0,0.543056 -0.143975,0.686567 -0.7756415,0.773147 -0.774402,0.106144 -1.570898,-0.528512 -1.73041505,-1.378811 -0.02903,-0.154761 -0.08241,-0.281384 -0.118609,-0.281384 -0.0362,0 -0.08958,0.126623 -0.11861,0.281384 -0.02903,0.154762 -0.167345,0.462024 -0.30736,0.682805 -0.622959,0.982303 -1.92833595,0.948004 -2.57025195,-0.06753 -0.243631,-0.385435 -0.390445,-0.435296 -0.390445,-0.132605 0,0.252777 -0.487993,0.746411 -0.832465,0.842087 -0.356775,0.09909 -0.7258471,0.100001 -1.0302011,0.0025 z m 3.88477105,-1.069398 c 0.29071,-0.203622 0.433835,-0.630335 0.42845,-1.277382 -0.0085,-1.018419 -0.34875,-1.525118 -0.89515095,-1.332958 -0.676255,0.237826 -0.838249,1.949257 -0.241035,2.546471 0.23677,0.23677 0.43530495,0.254686 0.70773595,0.06387 z M -6.440875,-38.306754 c 0.06613,-0.109291 -0.400534,-1.9685 -0.494098,-1.9685 -0.09356,0 -0.560229,1.859209 -0.494098,1.9685 0.02113,0.03493 0.243478,0.0635 0.494098,0.0635 0.25062,0 0.472964,-0.02857 0.494098,-0.0635 z m 11.6064865,2.61796 c -0.35168,-0.220879 -0.501252,-0.616788 -0.501252,-1.326794 0,-0.958216 0.300313,-1.307485 1.304273,-1.516914 0.577088,-0.12038 0.705603,-0.292964 0.460121,-0.617868 -0.144552,-0.191318 -0.24169,-0.23468 -0.51413,-0.229514 -0.199161,0.0038 -0.439733,0.08031 -0.590973,0.187999 -0.140293,0.09989 -0.279349,0.157354 -0.309017,0.127685 -0.02967,-0.02967 -0.05394,-0.256165 -0.05394,-0.503325 0,-0.420061 0.0177,-0.458536 0.27134,-0.589696 0.430691,-0.222719 1.240197,-0.248083 1.555767,-0.04875 0.524417,0.331255 0.585893,0.608254 0.585893,2.640047 v 1.820333 l -0.335288,0.02734 c -0.244374,0.01993 -0.364736,-0.01293 -0.443882,-0.121171 -0.102134,-0.139668 -0.120735,-0.137103 -0.312556,0.0431 -0.284116,0.266908 -0.785673,0.315217 -1.116355,0.107525 z m 1.176105,-1.132322 c 0.103826,-0.139689 0.173067,-0.370611 0.177706,-0.592667 l 0.0076,-0.363805 -0.296333,0.0277 c -0.408525,0.03819 -0.652162,0.215289 -0.719794,0.523202 -0.132478,0.603182 0.466581,0.895616 0.830817,0.405566 z m 2.090309,1.138897 c -0.214003,-0.106908 -0.364337,-0.284079 -0.541113,-0.637721 -0.451315,-0.902866 -0.386393,-2.589208 0.13197,-3.427945 0.341037,-0.551801 1.014527,-0.768166 1.50981,-0.485036 0.116417,0.06655 0.239132,0.12235 0.272711,0.123999 0.03357,0.0017 0.07167,-0.501824 0.08467,-1.118832 l 0.02362,-1.121834 h 0.4233325 0.423334 v 3.302 3.302 l -0.377927,0.02692 c -0.272982,0.01944 -0.4056295,-0.01096 -0.4776805,-0.109494 -0.08988,-0.122919 -0.13114,-0.115113 -0.417051,0.07891 -0.372753,0.252955 -0.648453,0.27046 -1.055675,0.06703 z m 1.006103,-1.005767 c 0.300744,-0.210646 0.433231,-0.629828 0.433231,-1.370695 0,-0.554827 -0.03266,-0.716104 -0.193413,-0.95522 -0.106671,-0.158671 -0.281246,-0.300307 -0.38928,-0.315828 -0.257666,-0.03702 -0.579764,0.270965 -0.68696,0.656854 -0.121116,0.435975 -0.104216,1.235763 0.03305,1.564275 0.102337,0.244942 0.416416,0.558679 0.559274,0.558679 0.02584,0 0.135696,-0.06213 0.244103,-0.138065 z m 2.5792595,0.97987 c -0.669781,-0.331538 -0.993784,-1.061456 -0.993784,-2.238805 0,-0.838182 0.10823,-1.272749 0.439158,-1.763259 0.421166,-0.624282 1.309471,-0.838434 1.960372,-0.472607 0.359452,0.202024 0.739487,0.737256 0.817058,1.150721 0.07562,0.403095 0.172678,0.346211 0.237033,-0.138924 0.06115,-0.460951 0.335373,-0.858828 0.734018,-1.064972 0.274277,-0.141835 0.896391,-0.163005 1.21627,-0.04139 0.197705,0.07517 0.217179,0.125401 0.217179,0.560204 v 0.477632 l -0.232834,-0.05733 c -0.608711,-0.149892 -0.707229,-0.150087 -0.871169,-0.0017 -0.0913,0.08262 -0.165997,0.217619 -0.165997,0.299994 0,0.147922 0.100533,0.240942 0.846099,0.782873 0.480754,0.349449 0.590431,0.569413 0.591989,1.187315 0.0025,0.965236 -0.472279,1.456536 -1.395755,1.44454 -0.2794,-0.0036 -0.612775,-0.05009 -0.740833,-0.103243 -0.217543,-0.0903 -0.232834,-0.130145 -0.232834,-0.606739 0,-0.296648 0.03684,-0.510096 0.08804,-0.510096 0.04842,0 0.237405,0.0762 0.419963,0.169334 0.41137,0.209864 0.604512,0.213109 0.850054,0.01429 0.307678,-0.249149 0.172694,-0.553913 -0.384675,-0.868471 -0.480094,-0.270951 -0.888712,-0.679226 -0.888712,-0.887976 0,-0.06628 -0.0381,-0.120503 -0.08467,-0.120503 -0.04696,0 -0.08467,0.224388 -0.08467,0.503832 0,1.832341 -1.095731,2.901863 -2.341304,2.285306 z m 0.97674,-0.97987 c 0.290711,-0.203622 0.43384,-0.630335 0.428455,-1.277382 -0.0085,-1.018419 -0.34875,-1.525118 -0.895155,-1.332958 -0.68061,0.239357 -0.842095,1.945409 -0.241038,2.546471 0.236771,0.23677 0.435306,0.254686 0.707738,0.06387 z m -41.096366,0.883573 c -0.02266,-0.06078 -0.05085,-1.234458 -0.06264,-2.608175 l -0.02143,-2.497666 -0.592667,-0.04233 -0.592666,-0.04233 v -0.508 -0.508 h 1.693333 1.693333 v 0.508 0.508 l -0.592667,0.04233 -0.592666,0.04233 -0.04233,2.582333 -0.04233,2.582333 -0.40303,0.02584 c -0.273532,0.01754 -0.41627,-0.0097 -0.444235,-0.08467 z m 7.956906,-0.0015 c -0.02363,-0.06158 -0.03277,-1.082859 -0.0203,-2.269507 l 0.02266,-2.157545 h 0.423333 0.423333 v 2.243667 2.243666 l -0.40303,0.02584 c -0.27556,0.01767 -0.416619,-0.0096 -0.445995,-0.08613 z m 23.7914215,2.54e-4 c -0.02368,-0.06171 -0.03286,-1.083091 -0.02039,-2.269739 l 0.02266,-2.157567 h 0.381 0.381 v 2.243667 2.243666 l -0.360608,0.02607 c -0.241059,0.01743 -0.374881,-0.01112 -0.403662,-0.08612 z m 33.5725985,-4.653822 c -0.52071,-0.148034 -0.59266,-0.271164 -0.59266,-1.014273 0,-0.365316 0.0333,-0.664211 0.074,-0.664211 0.0407,0 0.25754,0.102577 0.48186,0.227949 0.28522,0.159418 0.53035,0.227949 0.81533,0.227949 0.50706,0 0.80557,-0.201599 1.05764,-0.714298 0.323,-0.656963 0.35212,-1.789342 0.0306,-1.188501 -0.0476,0.08897 -0.2227,0.245899 -0.38909,0.348728 -0.38721,0.239311 -1.06727,0.205042 -1.45843,-0.07349 -0.32534,-0.231659 -0.76011,-1.083959 -0.83291,-1.6328 -0.0301,-0.227077 -0.0808,-0.412868 -0.11252,-0.412868 -0.0318,0 -0.10541,0.185917 -0.16364,0.413149 -0.308702,1.204502 -1.033152,1.866976 -2.04602,1.870992 -0.912613,0.0036 -1.610995,-0.585296 -1.931255,-1.628553 -0.088,-0.286655 -0.196782,-0.533454 -0.241748,-0.548443 -0.04497,-0.01499 -0.126865,0.173848 -0.181991,0.419635 -0.129778,0.578596 -0.527313,1.268961 -0.872076,1.514453 -0.182566,0.129996 -0.430123,0.205306 -0.751238,0.228534 -0.439014,0.03175 -0.503928,0.0127 -0.778714,-0.228562 -0.35416,-0.310954 -0.371229,-0.31459 -0.429573,-0.0915 -0.04283,0.16381 -0.100474,0.170621 -1.253879,0.148166 l -1.208989,-0.02354 -0.217534,-0.931334 -0.217543,-0.931333 -0.960501,-0.02402 c -0.568553,-0.01422 -1.003164,0.01139 -1.065056,0.06275 -0.05751,0.04773 -0.173211,0.420489 -0.257107,0.828357 -0.216899,1.054489 -0.203268,1.037912 -0.853541,1.037912 -0.364321,0 -0.562187,-0.03573 -0.586089,-0.105833 -0.01984,-0.05821 0.429032,-1.972734 0.997492,-4.2545 l 1.033569,-4.148667 h 0.672058 0.672067 l 0.356531,1.439333 c 0.196097,0.791634 0.63285,2.572809 0.970577,3.958167 0.337727,1.385358 0.646023,2.518834 0.685105,2.518834 0.03908,0 0.08095,-1.876426 0.09303,-4.169834 l 0.02196,-4.169833 h 0.550333 0.550333 l 0.02295,1.672166 c 0.01263,0.919692 0.05313,1.672167 0.08999,1.672167 0.03687,0 0.177131,-0.114908 0.311683,-0.25535 0.455693,-0.475641 1.2467,-0.523008 1.744133,-0.104442 0.307493,0.258737 0.580585,0.770414 0.708847,1.328137 0.05286,0.229907 0.134213,0.430706 0.180754,0.446221 0.04655,0.01552 0.150707,-0.181418 0.231471,-0.437629 0.387739,-1.230061 1.428589,-1.857546 2.543564,-1.533414 0.700837,0.20374 1.28502,0.947776 1.450667,1.847644 0.0768,0.417316 0.18182,0.401994 0.29011,-0.04233 0.15633,-0.641528 0.59734,-1.416959 0.92677,-1.62957 0.59226,-0.382233 1.20945,-0.349122 1.61903,0.08686 0.24313,0.258804 0.31698,0.262733 0.35163,0.01871 0.0246,-0.173383 0.0727,-0.1905 0.53506,-0.1905 h 0.508 l 0.0225,3.175 c 0.0138,1.953469 -0.0112,3.337871 -0.0652,3.598334 -0.20549,0.991902 -0.79447,1.784882 -1.5057,2.027221 -0.42973,0.146428 -1.17313,0.161173 -1.62658,0.03226 z m -7.106705,-4.051982 c 0.355752,-0.190392 0.535415,-0.738683 0.567817,-1.732836 0.02742,-0.841503 0.01146,-0.968005 -0.165541,-1.311546 -0.368909,-0.715994 -0.949037,-0.757261 -1.358866,-0.09666 -0.262534,0.423188 -0.329768,2.022099 -0.109296,2.599397 0.214689,0.562159 0.631647,0.774041 1.065886,0.541643 z m 4.512208,-0.08739 c 0.337371,-0.265378 0.504816,-0.952435 0.460739,-1.890512 -0.04287,-0.912192 -0.247549,-1.404327 -0.654135,-1.572738 -0.757191,-0.313637 -1.314187,0.459182 -1.310166,1.817804 0.0025,0.841995 0.09031,1.189413 0.385674,1.525811 0.209161,0.238223 0.319473,0.294523 0.577071,0.294523 0.19365,0 0.40563,-0.06855 0.540817,-0.174888 z m 4.244437,-0.02802 c 0.51109,-0.511096 0.63098,-2.247513 0.20811,-3.014107 -0.39301,-0.712444 -0.95659,-0.659448 -1.35005,0.12695 -0.18581,0.371381 -0.21152,0.531666 -0.21048,1.312063 10e-4,0.90519 0.0877,1.221839 0.44548,1.629833 0.19257,0.219627 0.66084,0.191365 0.90694,-0.05474 z m -13.24927,-2.1633 c 0,-0.202566 -0.574548,-2.723853 -0.634331,-2.783637 -0.02366,-0.02365 -0.05997,-0.02603 -0.08071,-0.0053 -0.05034,0.05034 -0.639623,2.647826 -0.639623,2.819385 0,0.111633 0.114994,0.134462 0.677334,0.134462 0.614849,0 0.677333,-0.01521 0.677333,-0.164919 z m -45.672864,5.564746 c -0.07249,-0.103494 -0.131801,-0.323617 -0.131801,-0.489161 0,-0.408549 0.201589,-0.677333 0.508,-0.677333 0.306412,0 0.508,0.268784 0.508,0.677333 0,0.408549 -0.201588,0.677334 -0.508,0.677334 -0.156574,0 -0.29176,-0.06762 -0.376199,-0.188173 z m 23.7066665,0 c -0.18891,-0.269707 -0.169315,-0.790313 0.03753,-0.997161 0.224678,-0.224678 0.550311,-0.216096 0.714866,0.01884 0.184684,0.263674 0.171518,0.850305 -0.02303,1.026372 -0.220994,0.199994 -0.571821,0.176881 -0.729369,-0.04805 z m 37.8342875,-1.925857 c -0.26,-0.105182 -0.60923,-0.556068 -0.70903,-0.915433 -0.11418,-0.411088 -0.11165,-1.242267 0.005,-1.669538 0.10652,-0.389973 0.42176,-0.840195 0.69315,-0.98994 0.10288,-0.05677 0.51091,-0.182977 0.90673,-0.280464 l 0.71966,-0.177251 0.0262,-0.312147 c 0.0352,-0.418956 -0.26871,-0.737864 -0.70308,-0.737864 -0.32239,0 -0.87042,0.238672 -1.0529,0.458546 -0.18819,0.226758 -0.25991,0.06251 -0.25991,-0.595227 v -0.634688 l 0.4445,-0.199426 c 1.20785,-0.541908 2.12004,-0.259293 2.52985,0.783808 0.17986,0.457791 0.19018,0.606303 0.19527,2.811653 l 0.005,2.328334 h -0.508 c -0.49125,0 -0.50888,-0.0077 -0.53479,-0.232833 -0.0318,-0.276098 -0.14288,-0.300188 -0.27197,-0.05897 -0.21885,0.408929 -0.98207,0.625361 -1.48615,0.42144 z m 1.2939,-1.378471 c 0.26306,-0.288814 0.3412,-0.483627 0.40754,-1.016 l 0.0606,-0.486833 -0.24258,5.08e-4 c -0.73498,0.0014 -1.21626,0.369739 -1.21626,0.930825 0,0.649341 0.60295,0.997174 0.99066,0.5715 z m 2.76758,1.29923 c -0.34404,-0.209785 -0.59065,-0.564808 -0.81202,-1.168955 -0.263,-0.717765 -0.26653,-2.702654 -0.006,-3.481514 0.34694,-1.037944 0.89401,-1.563794 1.63826,-1.574697 0.29124,-0.0043 0.47384,0.04678 0.66038,0.184603 0.1418,0.104775 0.2966,0.1905 0.344,0.1905 0.0545,0 0.0947,-0.568465 0.10926,-1.545167 l 0.0231,-1.545166 h 0.55033 0.55034 v 4.445 4.445 h -0.550535 c -0.50625,0 -0.5525,-0.01526 -0.57739,-0.1905 -0.0346,-0.243478 -0.0943,-0.238145 -0.34997,0.03126 -0.11423,0.12036 -0.29769,0.253052 -0.40768,0.29487 -0.33269,0.126487 -0.89149,0.08585 -1.17206,-0.08524 z m 1.4723,-1.385052 c 0.2579,-0.274532 0.42097,-0.711627 0.48865,-1.309858 0.11924,-1.053905 -0.12292,-1.835276 -0.66226,-2.136976 -0.20717,-0.115888 -0.25488,-0.115784 -0.46376,10e-4 -0.12806,0.0716 -0.32784,0.300203 -0.44396,0.508 -0.18753,0.335582 -0.21118,0.477182 -0.21167,1.266813 -8.4e-4,1.029701 0.0461,1.246129 0.34563,1.602141 0.27452,0.326248 0.67802,0.35558 0.94737,0.06887 z m 3.27374,1.39118 c -0.88225,-0.412415 -1.34686,-1.455574 -1.34505,-3.019858 0.002,-1.286177 0.23401,-2.017693 0.83736,-2.634433 0.35268,-0.360502 0.50664,-0.453761 0.87731,-0.531423 1.1552,-0.24204 2.05626,0.374357 2.44664,1.673696 0.17392,0.578892 0.19513,2.037831 0.0397,2.729691 -0.14305,0.636653 -0.56883,1.323751 -1.01335,1.635278 -0.47274,0.33131 -1.30612,0.39782 -1.84257,0.147049 z m 1.24592,-1.291432 c 0.43607,-0.233378 0.69824,-1.59516 0.49519,-2.572186 -0.11643,-0.560191 -0.5145,-1.06124 -0.84313,-1.06124 -0.35257,0 -0.69157,0.255445 -0.87875,0.662178 -0.26571,0.577377 -0.26007,2.013754 0.01,2.529448 0.10231,0.195412 0.25297,0.394278 0.33479,0.441926 0.19703,0.114742 0.66746,0.114674 0.88196,-8.5e-5 z m 2.3148,1.343855 c -0.43607,-0.153401 -0.46566,-0.212093 -0.46566,-0.923647 0,-0.524275 0.0261,-0.666967 0.122,-0.666967 0.0671,0 0.148,0.04207 0.17978,0.09348 0.087,0.140796 0.7263,0.410545 0.97796,0.412658 0.30681,0.0026 0.66759,-0.300163 0.66759,-0.560185 0,-0.349558 -0.14441,-0.516596 -0.7548,-0.873088 -0.73909,-0.431643 -0.9852,-0.72567 -1.10979,-1.325786 -0.3215,-1.54868 0.70918,-2.713923 2.13084,-2.409032 0.24303,0.05212 0.49209,0.136446 0.55347,0.187391 0.11429,0.09485 0.16391,1.176707 0.0588,1.281821 -0.029,0.02905 -0.19899,-0.02175 -0.37763,-0.11289 -0.63303,-0.322946 -1.26289,-0.127866 -1.26289,0.391141 0,0.268688 0.30266,0.567356 0.99452,0.981385 0.69323,0.414856 0.86815,0.751367 0.86815,1.670217 0,0.371358 -0.0405,0.782451 -0.0901,0.91354 -0.12803,0.338854 -0.48943,0.69966 -0.88361,0.882162 -0.37795,0.174981 -1.19236,0.204242 -1.60867,0.0578 z m -67.34965,-4.151967 c -0.460953,-0.154483 -1.053034,-0.791302 -1.261107,-1.356401 -0.306784,-0.833175 -0.35573,-1.492811 -0.331262,-4.464246 l 0.02336,-2.836333 h 0.592668 0.592667 l 0.04233,3.005666 0.04233,3.005667 0.225392,0.480811 c 0.274723,0.586044 0.592194,0.78647 1.146741,0.723965 0.445308,-0.05019 0.667723,-0.231839 0.904993,-0.739109 0.167958,-0.359087 0.180643,-0.556306 0.220541,-3.429 l 0.04233,-3.048 h 0.592667 0.592667 l 0.02336,2.794 c 0.02863,3.424067 -0.04473,4.036241 -0.59332,4.951121 -0.185232,0.308906 -0.412025,0.544931 -0.686018,0.713938 -0.359957,0.222033 -0.497763,0.255117 -1.143,0.274405 -0.403531,0.01206 -0.865838,-0.02236 -1.027349,-0.07648 z m -6.398538,-0.169147 c -0.0223,-0.05821 -0.03063,-1.991783 -0.01851,-4.296833 l 0.02204,-4.191 1.218909,-0.02357 c 1.538719,-0.02975 1.95433,0.07301 2.444084,0.604335 0.733878,0.796163 0.67252,2.209576 -0.132294,3.047483 -0.294016,0.306107 -0.303517,0.332246 -0.153857,0.423333 0.646672,0.393584 0.960432,0.92492 1.038246,1.758219 0.105073,1.125205 -0.369416,2.164656 -1.170306,2.563756 -0.421459,0.210022 -0.505066,0.220107 -1.82473,0.220107 -1.028358,0 -1.393431,-0.02714 -1.423579,-0.105833 z m 2.627035,-1.432382 c 0.446989,-0.351602 0.577903,-0.974746 0.333242,-1.586215 -0.175865,-0.439531 -0.543235,-0.618239 -1.200418,-0.583947 l -0.486332,0.02538 -0.0239,1.053637 c -0.01315,0.5795 -0.0048,1.103375 0.01851,1.164167 0.02878,0.07499 0.21656,0.11053 0.583987,0.11053 0.427352,0 0.590787,-0.03871 0.774917,-0.183549 z m -0.426041,-3.661713 c 0.348064,-0.14543 0.527602,-0.402044 0.600394,-0.858142 0.119273,-0.747337 -0.357475,-1.256333 -1.130112,-1.206555 l -0.397749,0.02562 -0.02409,0.96849 c -0.01325,0.53267 -0.0049,1.018445 0.01851,1.0795 0.05644,0.147085 0.571461,0.142163 0.933047,-0.0089 z m 8.468502,5.09799 c -0.02312,-0.06035 -0.03212,-1.995678 -0.02,-4.300728 l 0.02204,-4.191 h 1.735667 1.7356659 v 0.677333 0.677333 l -1.1006659,0.04233 -1.100667,0.04233 v 1.100667 1.100666 l 1.016,0.04233 1.0159999,0.04233 v 0.677333 0.677334 l -1.0159999,0.04233 -1.016,0.04233 -0.04233,1.693334 -0.04233,1.693333 -0.572662,0.02506 c -0.409726,0.01793 -0.584624,-0.0062 -0.614702,-0.08467 z m 3.8938199,-0.0022 c -0.02266,-0.05914 -0.03128,-1.993476 -0.01916,-4.298526 l 0.02204,-4.191 h 4.1909991 4.191 v 0.677333 0.677333 l -0.846666,0.04233 -0.846667,0.04233 -0.04233,3.556 -0.04233,3.556 h -0.63500005 -0.635 l -0.04233,-3.556 -0.04233,-3.556 H -2.024286 -3.9716201 v 1.016 1.016 l 0.9736671,0.04233 0.973667,0.04233 v 0.677333 0.677333 l -0.973667,0.04233 -0.9736671,0.04233 v 1.058333 1.058334 l 1.1430001,0.04233 1.143,0.04233 v 0.677334 0.677333 l -1.801176,0.02286 c -1.3948591,0.0177 -1.8104671,-0.0014 -1.8423681,-0.08467 z m 8.6359986,0 c -0.02266,-0.05914 -0.03128,-1.993476 -0.01916,-4.298526 l 0.02204,-4.191 h 1.735667 1.735666 v 0.677333 0.677333 l -1.100666,0.04233 -1.100667,0.04233 v 1.016 1.016 l 1.016,0.04233 1.016,0.04233 v 0.677333 0.677333 l -1.016,0.04233 -1.016,0.04233 v 1.058333 1.058334 l 1.185333,0.04233 1.185334,0.04233 v 0.677334 0.677333 l -1.801173,0.02286 c -1.394863,0.0177 -1.810471,-0.0014 -1.842372,-0.08467 z"
         id="path832"
         inkscape:connector-curvature="0" />
    </g>
  </g>
</svg>
