<?xml version="1.0" encoding="UTF-8" standalone="no"?>
<!-- Created with Inkscape (http://www.inkscape.org/) -->

<svg
   xmlns:dc="http://purl.org/dc/elements/1.1/"
   xmlns:cc="http://creativecommons.org/ns#"
   xmlns:rdf="http://www.w3.org/1999/02/22-rdf-syntax-ns#"
   xmlns:svg="http://www.w3.org/2000/svg"
   xmlns="http://www.w3.org/2000/svg"
   xmlns:sodipodi="http://sodipodi.sourceforge.net/DTD/sodipodi-0.dtd"
   xmlns:inkscape="http://www.inkscape.org/namespaces/inkscape"
   width="121.19533mm"
   height="26.19376mm"
   viewBox="0 0 121.19533 26.19376"
   version="1.1"
   id="svg8"
   inkscape:version="0.92.3 (2405546, 2018-03-11)"
   sodipodi:docname="paquete_express.svg">
  <defs
     id="defs2" />
  <sodipodi:namedview
     id="base"
     pagecolor="#ffffff"
     bordercolor="#666666"
     borderopacity="1.0"
     inkscape:pageopacity="0.0"
     inkscape:pageshadow="2"
     inkscape:zoom="1.4"
     inkscape:cx="357.64093"
     inkscape:cy="84.288362"
     inkscape:document-units="mm"
     inkscape:current-layer="layer1"
     showgrid="false"
     fit-margin-top="0"
     fit-margin-left="0"
     fit-margin-right="0"
     fit-margin-bottom="0"
     inkscape:window-width="1920"
     inkscape:window-height="1016"
     inkscape:window-x="0"
     inkscape:window-y="0"
     inkscape:window-maximized="1" />
  <metadata
     id="metadata5">
    <rdf:RDF>
      <cc:Work
         rdf:about="">
        <dc:format>image/svg+xml</dc:format>
        <dc:type
           rdf:resource="http://purl.org/dc/dcmitype/StillImage" />
        <dc:title></dc:title>
      </cc:Work>
    </rdf:RDF>
  </metadata>
  <g
     inkscape:label="Capa 1"
     inkscape:groupmode="layer"
     id="layer1"
     transform="translate(-26.253179,-120.56071)">
    <path
       style="fill:#002a52;fill-opacity:1;stroke-width:0.26458335"
       d="m 28.959703,146.18674 c -0.670593,-0.33193 -1.439009,-1.00977 -1.852083,-1.63376 l -0.705981,-1.06646 -0.07423,-11.4629 -0.07423,-11.46291 h 3.183082 3.183082 v 9.99811 c 0,9.84223 0.0093,10.01651 0.595313,11.17865 0.434894,0.86242 0.913432,1.34096 1.775854,1.77585 l 1.180542,0.59531 h 55.638735 55.638723 v 1.32292 1.32292 l -58.671348,-2.1e-4 -58.671356,-2.1e-4 z m 7.97197,-5.2424 c -1.757853,-1.07182 -1.789778,-1.26401 -1.880738,-11.32165 l -0.08196,-9.06198 h 1.338726 1.338726 v 8.81063 c 0,6.49993 0.08327,8.89389 0.3175,9.12813 0.244892,0.24489 12.799954,0.3175 54.901042,0.3175 H 147.4485 v 1.32291 1.32292 l -54.834885,-9.8e-4 c -53.919226,-9.8e-4 -54.849041,-0.01 -55.681947,-0.51748 z m 24.79311,-4.37499 c -0.494761,-0.52664 -0.699138,-0.59113 -1.13469,-0.35803 -0.292179,0.15637 -1.11592,0.22813 -1.830535,0.15946 -2.755281,-0.26475 -4.057092,-2.7247 -3.87032,-7.31352 0.08509,-2.09063 0.219839,-2.75121 0.75692,-3.71061 0.841012,-1.50232 1.763397,-2.16928 3.20286,-2.31592 1.591289,-0.16211 2.798136,0.51741 3.791644,2.13491 0.731464,1.19088 0.805018,1.5308 0.894043,4.13175 0.08275,2.41756 0.01741,3.01407 -0.44458,4.05846 l -0.541586,1.22435 0.65105,0.77373 0.651049,0.77372 -0.761203,0.54203 -0.761201,0.54202 z m -2.639214,-3.02932 c -0.151424,-0.28293 -0.39374,-0.58762 -0.538477,-0.67707 -0.434428,-0.26849 -0.301331,-0.62337 0.408138,-1.08823 0.638813,-0.41857 0.700987,-0.41196 1.284838,0.13654 l 0.61354,0.57639 0.154426,-1.3039 c 0.206722,-1.74546 -0.202665,-4.47335 -0.764508,-5.09418 -0.632709,-0.69913 -1.5591,-0.62574 -2.187641,0.17332 -1.120722,1.42477 -1.052179,6.00622 0.107204,7.16561 0.780854,0.78085 1.315273,0.84546 0.92248,0.11152 z m -18.793304,-3.7189 v -6.61458 H 42.3028 c 3.434991,0 4.604049,1.0023 4.604049,3.94731 0,1.45858 -0.08499,1.70945 -0.868984,2.56493 -0.695501,0.75893 -1.118071,0.97631 -2.116667,1.08886 l -1.247683,0.14063 v 2.74372 2.74371 H 41.48289 40.292265 Z m 3.749479,-1.49622 c 0.958136,-0.8671 0.44891,-3.0017 -0.71608,-3.0017 -0.626256,0 -0.652149,0.0683 -0.652149,1.7198 0,1.43064 0.07435,1.71979 0.442188,1.71979 0.243203,0 0.659921,-0.19705 0.926041,-0.43789 z m 2.071355,7.9918 c 0,-0.20907 2.63416,-12.08524 2.805165,-12.64714 0.109016,-0.35822 0.432279,-0.46302 1.428168,-0.46302 0.995116,0 1.319699,0.10508 1.4302,0.46302 0.310819,1.0068 2.803133,12.03383 2.803133,12.40222 0,0.30367 -0.285459,0.3746 -1.256771,0.31228 -1.246714,-0.08 -1.25866,-0.0896 -1.4928,-1.20513 l -0.23603,-1.12448 H 50.32441 49.054657 l -0.221123,1.12448 c -0.219602,1.11675 -0.229714,1.12504 -1.470778,1.20513 -0.687312,0.0443 -1.249657,0.014 -1.249657,-0.0674 z m 4.938947,-4.97423 c -0.08003,-0.32742 -0.294642,-1.42875 -0.476922,-2.44739 l -0.331416,-1.85208 -0.325639,2.11666 c -0.448358,2.91436 -0.47077,2.77813 0.457046,2.77813 0.719617,0 0.804244,-0.0744 0.676931,-0.59532 z m 15.517237,4.70598 c -1.556393,-0.67693 -1.762975,-1.49666 -1.886072,-7.4841 l -0.110149,-5.35781 h 1.337628 1.33763 l 0.08187,5.16945 c 0.08692,5.48856 0.131964,5.67036 1.404787,5.67036 1.272823,0 1.317863,-0.1818 1.404787,-5.67036 l 0.08187,-5.16945 h 1.326695 1.326698 l -0.08565,5.35781 c -0.09662,6.04431 -0.29415,6.8048 -1.946807,7.49532 -1.132189,0.47306 -3.172121,0.4677 -4.273282,-0.0112 z m 7.854233,-6.22733 v -6.61458 h 2.645833 2.645833 v 1.19062 1.19063 h -1.455208 -1.455208 v 1.32291 1.32292 h 1.322916 1.322917 v 1.19063 1.19062 h -1.322917 -1.322916 v 1.5875 1.5875 h 1.455208 1.455208 v 1.32292 1.32291 h -2.645833 -2.645833 z m 8.466667,1.19063 v -5.42396 h -0.926042 c -0.921142,0 -0.926042,-0.006 -0.926042,-1.19063 v -1.19062 h 3.175 3.175 v 1.19062 c 0,1.18433 -0.0049,1.19063 -0.926041,1.19063 h -0.926042 v 5.42396 5.42395 h -1.322917 -1.322916 z m 5.74158,5.25651 c -0.101931,-0.10193 -0.18533,-3.08252 -0.18533,-6.62353 v -6.43819 h 2.778125 2.778125 v 1.19062 1.19063 h -1.455209 -1.455208 v 1.32291 1.32292 h 1.322917 1.322917 v 1.19063 1.19062 h -1.322917 -1.322917 v 1.5875 1.5875 h 1.469705 1.469705 l -0.08064,1.25677 -0.08064,1.25677 -2.526649,0.0751 c -1.389658,0.0413 -2.610049,-0.008 -2.711979,-0.11024 z m 6.16467,0.008 c 0,-0.0877 0.616347,-1.54621 1.36966,-3.24115 0.753312,-1.69494 1.356173,-3.2603 1.339692,-3.47858 -0.01648,-0.21829 -0.573299,-1.68789 -1.237369,-3.26578 -0.66407,-1.5779 -1.2074,-2.92357 -1.2074,-2.99039 0,-0.0668 0.618884,-0.0855 1.375299,-0.0415 l 1.375302,0.08 0.527727,1.65365 c 0.290248,0.9095 0.60094,1.65364 0.690422,1.65364 0.08948,0 0.400175,-0.74414 0.690423,-1.65364 l 0.527731,-1.65365 1.3753,-0.08 c 0.75641,-0.044 1.3753,-0.0276 1.3753,0.0364 0,0.064 -0.59237,1.51719 -1.31638,3.22934 l -1.31638,3.113 1.31638,3.05437 c 0.72401,1.6799 1.31638,3.20948 1.31638,3.39907 0,0.23277 -0.39137,0.34471 -1.20519,0.34471 -1.20033,0 -1.20763,-0.006 -1.812773,-1.38907 -0.334174,-0.76398 -0.696526,-1.74625 -0.80523,-2.18281 -0.182118,-0.73141 -0.250957,-0.62232 -0.876504,1.38906 l -0.678863,2.18282 h -1.411763 c -0.77647,0 -1.411764,-0.0718 -1.411764,-0.15944 z m 9.260417,-6.48148 v -6.64091 l 2.40177,0.0925 2.40178,0.0925 0.93385,1.01922 c 0.91094,0.99422 0.93131,1.06406 0.83051,2.84804 -0.0917,1.6234 -0.19532,1.92081 -0.92219,2.64768 -0.60435,0.60435 -1.13917,0.85496 -2.04166,0.95668 l -1.22281,0.13783 v 2.74371 2.74372 h -1.19062 -1.19063 z m 3.81756,-1.44778 c 0.89308,-0.89308 0.34053,-3.02381 -0.78416,-3.02381 -0.62626,0 -0.65215,0.0683 -0.65215,1.71979 0,1.52217 0.0586,1.7198 0.51027,1.7198 0.28065,0 0.69737,-0.1871 0.92604,-0.41578 z m 3.85536,1.47411 v -6.61459 h 1.99287 c 3.47219,0 4.62171,0.87447 4.62171,3.51585 0,1.70532 -0.27018,2.43625 -1.1943,3.23103 l -0.61528,0.52917 1.16937,2.89872 c 0.64316,1.5943 1.16938,2.93998 1.16938,2.99039 0,0.0504 -0.61312,0.0557 -1.36248,0.0117 l -1.36247,-0.08 -0.95263,-2.51354 -0.95263,-2.51354 -0.0757,2.57969 -0.0757,2.57969 h -1.18105 -1.18104 z m 3.81756,-1.47411 c 0.89308,-0.89308 0.34052,-3.02381 -0.78416,-3.02381 -0.62626,0 -0.65215,0.0683 -0.65215,1.71979 0,1.52217 0.0586,1.7198 0.51026,1.7198 0.28065,0 0.69737,-0.1871 0.92605,-0.41578 z m 4.38452,1.47411 v -6.61459 h 2.64583 2.64584 v 1.1768 1.1768 l -1.38907,0.08 -1.38906,0.08 -0.0806,1.25677 -0.0806,1.25677 h 1.33742 1.33741 v 1.19063 1.19062 h -1.33612 -1.33612 l 0.0794,1.52136 0.0794,1.52135 1.38906,0.08 1.38906,0.08 v 1.30909 1.30909 h -2.64584 -2.64583 z m 7.47448,6.34175 c -0.50756,-0.20401 -0.59531,-0.43691 -0.59531,-1.58003 0,-1.27232 0.0279,-1.32585 0.54571,-1.0487 0.78389,0.41952 2.1107,0.4006 2.38586,-0.034 0.46938,-0.7414 0.21493,-1.31865 -1.33526,-3.02923 -1.65957,-1.83126 -2.05741,-2.83195 -1.75728,-4.42008 0.4415,-2.33617 2.24829,-3.51849 4.3943,-2.87553 1.02912,0.30833 1.05833,0.34965 1.05833,1.49709 0,1.21267 -0.19224,1.37894 -1.0584,0.91538 -0.32435,-0.17359 -0.72796,-0.17584 -1.17323,-0.007 -1.13954,0.43325 -0.89767,1.41923 0.79727,3.24996 1.66548,1.79892 1.96395,2.40479 1.96254,3.98375 -0.002,2.65927 -2.67578,4.37244 -5.22453,3.34797 z m 6.61458,0.0144 c -0.50219,-0.214 -0.59531,-0.45708 -0.59531,-1.55395 v -1.30026 l 0.98043,0.33705 c 1.2363,0.42502 2.03713,0.14914 2.14406,-0.73861 0.0614,-0.50966 -0.25883,-1.05512 -1.28401,-2.18715 -2.17204,-2.39845 -2.54795,-3.80003 -1.5642,-5.83219 0.81307,-1.67957 2.37037,-2.30134 4.18216,-1.66975 0.76698,0.26738 0.83323,0.3845 0.83323,1.47304 0,1.11003 -0.0365,1.17014 -0.59531,0.97991 -0.8699,-0.29614 -1.8221,-0.20128 -2.08104,0.20731 -0.45989,0.72569 -0.19662,1.31339 1.35572,3.02634 1.76811,1.95103 1.97173,2.4504 1.78626,4.38062 -0.18409,1.9159 -1.23137,2.92501 -3.15942,3.04428 -0.77399,0.0479 -1.67514,-0.0271 -2.00257,-0.16663 z m 7.89773,-0.8881 c -0.0283,-1.3713 0.47201,-1.63956 0.78583,-0.42136 l 0.16534,0.64185 0.10654,-0.64074 c 0.0586,-0.3524 0.25537,-0.68974 0.43727,-0.74965 0.23623,-0.0778 0.32319,0.25645 0.30435,1.1699 -0.0214,1.03579 -0.0666,1.15312 -0.23821,0.61736 -0.13186,-0.41174 -0.22179,-0.49255 -0.23821,-0.21405 -0.0429,0.72854 -0.57647,0.85157 -0.75684,0.17453 l -0.16569,-0.62194 -0.187,0.66146 c -0.14255,0.5042 -0.19328,0.35743 -0.21338,-0.61736 z m 3.18465,0.022 c -0.0297,-1.03564 0.0454,-1.25606 0.42699,-1.25272 0.77406,0.007 1.02741,0.346 1.0509,1.40712 l 0.0225,1.01429 -0.61413,-0.57694 -0.61414,-0.57695 -0.11802,0.62099 c -0.0649,0.34154 -0.13425,0.0554 -0.15407,-0.63579 z m 1.02231,-0.46302 c 0,-0.14552 -0.1786,-0.26458 -0.39688,-0.26458 -0.21828,0 -0.39687,0.11906 -0.39687,0.26458 0,0.14552 0.17859,0.26458 0.39687,0.26458 0.21828,0 0.39688,-0.11906 0.39688,-0.26458 z m 0.92604,1.32292 c -0.0899,-0.14552 -0.0374,-0.26459 0.11667,-0.26459 0.15411,0 0.2802,0.11907 0.2802,0.26459 0,0.14552 -0.0525,0.26458 -0.11667,0.26458 -0.0642,0 -0.19026,-0.11906 -0.2802,-0.26458 z"
       id="path828"
       inkscape:connector-curvature="0" />
  </g>
</svg>
