<?xml version="1.0" encoding="UTF-8" standalone="no"?>
<svg
   id="svg8"
   version="1.1"
   viewBox="0 0 33.539436 13.02168"
   height="13.02168mm"
   width="33.539436mm"
   sodipodi:docname="salida.svg"
   inkscape:version="1.1 (c4e8f9e, 2021-05-24)"
   xmlns:inkscape="http://www.inkscape.org/namespaces/inkscape"
   xmlns:sodipodi="http://sodipodi.sourceforge.net/DTD/sodipodi-0.dtd"
   xmlns="http://www.w3.org/2000/svg"
   xmlns:svg="http://www.w3.org/2000/svg"
   xmlns:rdf="http://www.w3.org/1999/02/22-rdf-syntax-ns#"
   xmlns:cc="http://creativecommons.org/ns#"
   xmlns:dc="http://purl.org/dc/elements/1.1/">
  <sodipodi:namedview
     pagecolor="#ffffff"
     bordercolor="#666666"
     borderopacity="1"
     objecttolerance="10"
     gridtolerance="10"
     guidetolerance="10"
     inkscape:pageopacity="0"
     inkscape:pageshadow="2"
     inkscape:window-width="1844"
     inkscape:window-height="1020"
     id="namedview16"
     showgrid="false"
     fit-margin-top="0"
     fit-margin-left="0"
     fit-margin-right="0"
     fit-margin-bottom="0"
     inkscape:zoom="4.4005589"
     inkscape:cx="63.741904"
     inkscape:cy="51.470735"
     inkscape:window-x="1996"
     inkscape:window-y="0"
     inkscape:window-maximized="1"
     inkscape:current-layer="svg8"
     inkscape:pagecheckerboard="0"
     inkscape:document-units="mm" />
  <defs
     id="defs2" />
  <metadata
     id="metadata5">
    <rdf:RDF>
      <cc:Work
         rdf:about="">
        <dc:format>image/svg+xml</dc:format>
        <dc:type
           rdf:resource="http://purl.org/dc/dcmitype/StillImage" />
      </cc:Work>
    </rdf:RDF>
  </metadata>
  <g
     transform="matrix(0.08867516,0,0,0.09860282,22.189425,1.7087547)"
     id="g6186">
    <g
       id="g6184"
       transform="translate(-17.886223,-8.4659887)">
      <circle
         style="opacity:1;fill:#1a1a1a;fill-opacity:1;stroke:none;stroke-width:0.365;stroke-linecap:round;stroke-linejoin:round;stroke-miterlimit:4;stroke-dasharray:none;stroke-dashoffset:0.15;stroke-opacity:1;paint-order:stroke fill markers"
         id="circle6164"
         cx="62.421162"
         cy="56.93047"
         r="64.956818" />
      <path
         inkscape:connector-curvature="0"
         style="fill:#000000;stroke:none;stroke-width:1px;stroke-linecap:butt;stroke-linejoin:miter;stroke-opacity:1"
         d="m 290.92383,82.775391 -70.90039,154.068359 115.2207,66.52344 35.25391,154.20117 A 245.50608,245.50608 0 0 0 488.94922,280.80078 Z"
         transform="matrix(0.26458333,0,0,0.26458333,-2.718156,-8.2088481)"
         id="path6166" />
      <path
         inkscape:connector-curvature="0"
         style="fill:#000000;fill-opacity:1;stroke:none;stroke-width:1px;stroke-linecap:butt;stroke-linejoin:miter;stroke-opacity:1"
         d="m 326.42773,287.39258 -208.96679,101.2539 101.40234,101.40235 a 245.50608,245.50608 0 0 0 27.33203,1.65234 245.50608,245.50608 0 0 0 191.8418,-92.69922 z"
         transform="matrix(0.26458333,0,0,0.26458333,-2.718156,-8.2088481)"
         id="path6168" />
      <path
         inkscape:connector-curvature="0"
         style="fill:#b3b3b3;fill-opacity:1;stroke:none;stroke-width:0.264583px;stroke-linecap:butt;stroke-linejoin:miter;stroke-opacity:1"
         d="m 52.004429,57.681013 7.556788,4.362913 -0.799184,0.9789 -6.709077,-3.189173 z"
         id="path6170" />
      <g
         id="g6174"
         transform="translate(-145.5862,-24.623108)">
        <path
           inkscape:connector-curvature="0"
           style="fill:#d5e5ff;stroke-width:0.264583"
           d="m 196.50489,127.59108 c 0,-0.14553 -0.38695,-0.26497 -0.85989,-0.26543 -1.22817,-10e-4 -5.18076,-0.71443 -8.26587,-1.49153 -6.90363,-1.73893 -12.86285,-5.00851 -14.34199,-7.86885 -0.83712,-1.6188 0.0157,-15.14755 1.25287,-19.875235 1.57204,-6.007312 4.89135,-9.766948 10.91694,-12.365135 2.17552,-0.938064 7.33122,-2.419131 10.84862,-3.116456 l 1.53506,-0.304323 1.37536,1.061026 c 2.57948,1.98995 5.37326,2.824869 9.31286,2.783136 3.41859,-0.03621 6.17979,-0.8872 8.46146,-2.607773 0.87026,-0.656251 1.61251,-1.193183 1.64943,-1.193183 0.0369,0 1.52755,0.308007 3.3125,0.684459 10.36453,2.185923 15.66,5.350758 18.44895,11.026017 1.93506,3.937675 2.50754,7.129777 2.96596,16.538167 0.28168,5.7812 0.27022,6.50987 -0.11515,7.318 -0.45252,0.94894 -3.22482,3.31781 -5.22211,4.46219 -3.2945,1.88762 -10.33305,4.04331 -15.41198,4.7202 -1.41883,0.18909 -2.57969,0.43729 -2.57969,0.55155 0,0.11426 -5.23875,0.20775 -11.64166,0.20775 -7.58473,0 -11.64167,-0.0922 -11.64167,-0.26458 z m 8.03532,-47.226083 c -3.15776,-0.686784 -6.18687,-2.523834 -8.89482,-5.394404 -2.20478,-2.337176 -3.86701,-5.147143 -4.91458,-8.30798 -1.08542,-3.275028 -1.3653,-5.210461 -1.36767,-9.457643 -0.005,-8.560472 1.48636,-13.650919 5.05514,-17.257203 2.00778,-2.028878 4.67534,-3.472814 7.3574,-3.982518 0.88461,-0.168113 1.60838,-0.397481 1.60838,-0.509707 0,-0.112226 2.08359,-0.204047 4.63021,-0.204047 2.54661,0 4.6302,0.09182 4.6302,0.204047 0,0.112226 0.72377,0.341594 1.60838,0.509707 2.68475,0.510216 5.35001,1.95357 7.35401,3.982518 3.56705,3.611454 5.0633,8.715918 5.05853,17.257203 -0.002,4.247182 -0.28225,6.182615 -1.36767,9.457643 -3.26039,9.837581 -12.00035,15.606977 -20.75751,13.702384 z"
           id="path6172" />
      </g>
      <g
         id="g6178"
         transform="matrix(0.29767194,0,0,0.29767194,7.7989559,51.96872)"
         style="fill:#ffffff" />
      <path
         inkscape:connector-curvature="0"
         style="fill:#003380;stroke:none;stroke-width:0.264583px;stroke-linecap:butt;stroke-linejoin:miter;stroke-opacity:1"
         d="m 88.287117,99.485518 -0.534538,-18.8425 -1.202714,-0.801809 1.269532,0.634764 0.100224,-1.135893 0.100227,1.169302 z"
         id="path6180" />
      <path
         inkscape:connector-curvature="0"
         id="path6182"
         d="m 35.167298,99.485518 0.718856,-18.462697 c 0.0061,-0.07231 0.02819,-0.143165 0.0739,-0.192452 l 0.944493,-0.98916 c 0,0 -0.564189,0.464653 -0.977206,0.23386 -0.331811,-0.185415 -0.510668,-3.333575 -0.510668,-3.333575 0,0 0.02375,2.511925 0.01789,3.767888 -0.02953,6.325937 -0.267266,18.976136 -0.267265,18.976136 z"
         style="fill:#003380;stroke:none;stroke-width:0.264583px;stroke-linecap:butt;stroke-linejoin:miter;stroke-opacity:1" />
    </g>
  </g>
  <g
     id="g16410"
     transform="translate(-0.69873957,0.56340158)">
    <g
       id="g16405">
      <rect
         style="fill:#000000;fill-opacity:1;stroke:#b3b3b3;stroke-width:0;stroke-linecap:round"
         id="rect16030"
         width="3.4010556"
         height="3.0107627"
         x="16.264009"
         y="4.22365" />
    </g>
    <path
       inkscape:connector-curvature="0"
       style="fill:#ff0000;stroke-width:0.00678215"
       d="m 16.698578,6.7616326 c 0.0018,-0.00898 0.438157,-0.4812376 1.06376,-1.1512416 0.09527,-0.1020214 0.178988,-0.1960818 0.186065,-0.2090222 l 0.01276,-0.02353 -0.02733,-0.056478 c -0.01508,-0.031064 -0.02733,-0.060103 -0.02733,-0.064532 0,-0.00585 0.08263,-0.00805 0.302783,-0.00805 h 0.302784 l 0.0174,0.019676 c 0.01995,0.022553 0.356104,0.6564704 0.357171,0.6735304 6.31e-4,0.010047 -0.03149,0.011439 -0.303391,0.01311 -0.252458,0.00155 -0.307062,1.362e-4 -0.321582,-0.00828 -0.01253,-0.00729 -0.03529,-0.046009 -0.08086,-0.1377401 -0.03485,-0.070178 -0.06845,-0.1334917 -0.07467,-0.1406986 -0.01091,-0.012622 -0.02422,8.511e-4 -0.354698,0.3579144 -0.188873,0.2040614 -0.421532,0.4553509 -0.517043,0.5584234 l -0.173651,0.187404 h -0.182167 c -0.156528,7e-7 -0.181865,-0.00147 -0.180079,-0.010465 z m 1.21635,-1.6406847 c -0.04318,-0.00246 -0.08128,-0.0077 -0.08467,-0.011625 -0.0035,-0.00394 -0.05269,-0.098766 -0.109518,-0.2107415 -0.07109,-0.140079 -0.101258,-0.2058944 -0.09669,-0.2109759 0.0044,-0.00487 0.109448,-0.00738 0.308465,-0.00738 h 0.301821 l 0.01531,0.01789 c 0.0086,0.00984 0.04378,0.084816 0.07845,0.1666302 0.03467,0.081812 0.06555,0.1504902 0.06866,0.1526156 0.003,0.00212 0.03225,-0.021347 0.06481,-0.052156 0.180172,-0.1705702 0.293175,-0.272393 0.307122,-0.2767551 0.02251,-0.00705 0.328377,-0.014943 0.349628,-0.009 0.01531,0.00427 0.01671,0.00654 0.0093,0.016196 -0.0074,0.00981 -0.161237,0.1499798 -0.370158,0.3370756 -0.111606,0.099961 -0.06223,0.08968 -0.438669,0.091318 -0.179058,7.764e-4 -0.360865,-6.13e-4 -0.404037,-0.00306 z"
       id="path896-2" />
  </g>
  <g
     transform="matrix(0.08867516,0,0,0.09860282,5.5054788,1.7087547)"
     id="layer1">
    <g
       id="g93"
       transform="translate(-17.886223,-8.4659887)">
      <circle
         style="opacity:1;fill:#0066ff;fill-opacity:1;stroke:none;stroke-width:0.365;stroke-linecap:round;stroke-linejoin:round;stroke-miterlimit:4;stroke-dasharray:none;stroke-dashoffset:0.15;stroke-opacity:1;paint-order:stroke fill markers"
         id="path850"
         cx="62.421162"
         cy="56.93047"
         r="64.956818" />
      <path
         inkscape:connector-curvature="0"
         style="fill:#0055d4;stroke:none;stroke-width:1px;stroke-linecap:butt;stroke-linejoin:miter;stroke-opacity:1"
         d="m 290.92383,82.775391 -70.90039,154.068359 115.2207,66.52344 35.25391,154.20117 A 245.50608,245.50608 0 0 0 488.94922,280.80078 Z"
         transform="matrix(0.26458333,0,0,0.26458333,-2.718156,-8.2088481)"
         id="path873" />
      <path
         inkscape:connector-curvature="0"
         style="fill:#0055d4;fill-opacity:1;stroke:none;stroke-width:1px;stroke-linecap:butt;stroke-linejoin:miter;stroke-opacity:1"
         d="m 326.42773,287.39258 -208.96679,101.2539 101.40234,101.40235 a 245.50608,245.50608 0 0 0 27.33203,1.65234 245.50608,245.50608 0 0 0 191.8418,-92.69922 z"
         transform="matrix(0.26458333,0,0,0.26458333,-2.718156,-8.2088481)"
         id="path871" />
      <path
         inkscape:connector-curvature="0"
         style="fill:#b3b3b3;fill-opacity:1;stroke:none;stroke-width:0.264583px;stroke-linecap:butt;stroke-linejoin:miter;stroke-opacity:1"
         d="m 52.004429,57.681013 7.556788,4.362913 -0.799184,0.9789 -6.709077,-3.189173 z"
         id="path875" />
      <g
         id="g844"
         transform="translate(-145.5862,-24.623108)">
        <path
           inkscape:connector-curvature="0"
           style="fill:#d5e5ff;stroke-width:0.264583"
           d="m 196.50489,127.59108 c 0,-0.14553 -0.38695,-0.26497 -0.85989,-0.26543 -1.22817,-10e-4 -5.18076,-0.71443 -8.26587,-1.49153 -6.90363,-1.73893 -12.86285,-5.00851 -14.34199,-7.86885 -0.83712,-1.6188 0.0157,-15.14755 1.25287,-19.875235 1.57204,-6.007312 4.89135,-9.766948 10.91694,-12.365135 2.17552,-0.938064 7.33122,-2.419131 10.84862,-3.116456 l 1.53506,-0.304323 1.37536,1.061026 c 2.57948,1.98995 5.37326,2.824869 9.31286,2.783136 3.41859,-0.03621 6.17979,-0.8872 8.46146,-2.607773 0.87026,-0.656251 1.61251,-1.193183 1.64943,-1.193183 0.0369,0 1.52755,0.308007 3.3125,0.684459 10.36453,2.185923 15.66,5.350758 18.44895,11.026017 1.93506,3.937675 2.50754,7.129777 2.96596,16.538167 0.28168,5.7812 0.27022,6.50987 -0.11515,7.318 -0.45252,0.94894 -3.22482,3.31781 -5.22211,4.46219 -3.2945,1.88762 -10.33305,4.04331 -15.41198,4.7202 -1.41883,0.18909 -2.57969,0.43729 -2.57969,0.55155 0,0.11426 -5.23875,0.20775 -11.64166,0.20775 -7.58473,0 -11.64167,-0.0922 -11.64167,-0.26458 z m 8.03532,-47.226083 c -3.15776,-0.686784 -6.18687,-2.523834 -8.89482,-5.394404 -2.20478,-2.337176 -3.86701,-5.147143 -4.91458,-8.30798 -1.08542,-3.275028 -1.3653,-5.210461 -1.36767,-9.457643 -0.005,-8.560472 1.48636,-13.650919 5.05514,-17.257203 2.00778,-2.028878 4.67534,-3.472814 7.3574,-3.982518 0.88461,-0.168113 1.60838,-0.397481 1.60838,-0.509707 0,-0.112226 2.08359,-0.204047 4.63021,-0.204047 2.54661,0 4.6302,0.09182 4.6302,0.204047 0,0.112226 0.72377,0.341594 1.60838,0.509707 2.68475,0.510216 5.35001,1.95357 7.35401,3.982518 3.56705,3.611454 5.0633,8.715918 5.05853,17.257203 -0.002,4.247182 -0.28225,6.182615 -1.36767,9.457643 -3.26039,9.837581 -12.00035,15.606977 -20.75751,13.702384 z"
           id="path846" />
      </g>
      <g
         id="g894"
         transform="matrix(0.29767194,0,0,0.29767194,7.7989559,51.96872)"
         style="fill:#ffffff">
        <path
           inkscape:connector-curvature="0"
           style="fill:#ff0000;stroke-width:0.352778"
           d="m 117.18783,159.52775 c 0.0979,-0.44294 24.03293,-23.73833 58.34732,-56.78805 5.22504,-5.032466 9.81757,-9.672231 10.20562,-10.31059 l 0.70556,-1.160653 -1.49931,-2.785921 c -0.82462,-1.532258 -1.4993,-2.964681 -1.4993,-3.183163 0,-0.28884 4.53184,-0.397238 16.60769,-0.397238 h 16.60769 l 0.95382,0.970138 c 1.09362,1.112333 19.53233,32.382127 19.59083,33.223667 0.0345,0.49608 -1.72703,0.56451 -16.641,0.64646 -13.84735,0.0761 -16.84247,0.007 -17.63889,-0.40886 -0.68969,-0.35983 -1.9361,-2.26949 -4.43465,-6.79443 -1.91144,-3.46165 -3.75453,-6.58479 -4.09577,-6.9403 -0.59709,-0.62208 -1.32865,0.0418 -19.45521,17.65508 -10.35913,10.0658 -23.12104,22.46135 -28.35979,27.54567 l -9.525,9.24421 -9.99184,1e-5 c -8.58554,2e-5 -9.97578,-0.0726 -9.87777,-0.51603 z m 66.71696,-80.931079 c -2.36799,-0.121509 -4.45806,-0.379675 -4.64459,-0.573703 -0.18654,-0.194028 -2.8898,-4.87195 -6.00725,-10.395383 -3.8999,-6.90979 -5.55436,-10.156261 -5.30355,-10.406944 0.24038,-0.240246 6.0031,-0.364339 16.91939,-0.364339 h 16.55485 l 0.84612,0.881944 c 0.46537,0.48507 2.40172,4.183827 4.30301,8.21946 1.90129,4.035633 3.59568,7.423296 3.76532,7.52814 0.16964,0.104843 1.76902,-1.052856 3.55417,-2.572665 9.88281,-8.413839 16.08057,-13.436515 16.8456,-13.651699 1.23831,-0.348304 18.01146,-0.737131 19.17717,-0.444555 0.83907,0.210593 0.91116,0.32236 0.51544,0.799172 -0.40191,0.484276 -8.84433,7.398137 -20.30315,16.627128 -6.12223,4.930878 -3.41327,4.42373 -24.06113,4.504511 -9.82079,0.03842 -19.79342,-0.02956 -22.1614,-0.151067 z"
           id="path896" />
      </g>
      <path
         inkscape:connector-curvature="0"
         style="fill:#003380;stroke:none;stroke-width:0.264583px;stroke-linecap:butt;stroke-linejoin:miter;stroke-opacity:1"
         d="m 88.287117,99.485518 -0.534538,-18.8425 -1.202714,-0.801809 1.269532,0.634764 0.100224,-1.135893 0.100227,1.169302 z"
         id="path900" />
      <path
         inkscape:connector-curvature="0"
         id="path902"
         d="m 35.167298,99.485518 0.718856,-18.462697 c 0.0061,-0.07231 0.02819,-0.143165 0.0739,-0.192452 l 0.944493,-0.98916 c 0,0 -0.564189,0.464653 -0.977206,0.23386 -0.331811,-0.185415 -0.510668,-3.333575 -0.510668,-3.333575 0,0 0.02375,2.511925 0.01789,3.767888 -0.02953,6.325937 -0.267266,18.976136 -0.267265,18.976136 z"
         style="fill:#003380;stroke:none;stroke-width:0.264583px;stroke-linecap:butt;stroke-linejoin:miter;stroke-opacity:1" />
    </g>
  </g>
  <path
     id="path2640"
     d="M 21.27889,4.5648837 23.071428,6.3574221 21.27889,8.1499606 20.959764,7.8285714 22.204582,6.5837525 H 18.997477 V 6.1310918 h 3.207105 L 20.959764,4.8862729 21.27889,4.5648837 m 1.792538,1.7925384 c -14.9426386,-4.6629653 -7.47132,-2.3314826 0,0 z"
     inkscape:connector-curvature="0"
     style="fill:#ffffff;stroke-width:0.226331"
     sodipodi:nodetypes="cccccccccccc" />
</svg>
