<?xml version="1.0" encoding="UTF-8" standalone="no"?>
<svg
   xmlns:dc="http://purl.org/dc/elements/1.1/"
   xmlns:cc="http://creativecommons.org/ns#"
   xmlns:rdf="http://www.w3.org/1999/02/22-rdf-syntax-ns#"
   xmlns:svg="http://www.w3.org/2000/svg"
   xmlns="http://www.w3.org/2000/svg"
   xmlns:sodipodi="http://sodipodi.sourceforge.net/DTD/sodipodi-0.dtd"
   xmlns:inkscape="http://www.inkscape.org/namespaces/inkscape"
   id="svg8"
   version="1.1"
   viewBox="0 0 26.132349 26.132349"
   height="26.132349mm"
   width="26.132349mm"
   sodipodi:docname="usuario_generico.svg"
   inkscape:version="0.92.3 (2405546, 2018-03-11)">
  <sodipodi:namedview
     pagecolor="#ffffff"
     bordercolor="#666666"
     borderopacity="1"
     objecttolerance="10"
     gridtolerance="10"
     guidetolerance="10"
     inkscape:pageopacity="0"
     inkscape:pageshadow="2"
     inkscape:window-width="1920"
     inkscape:window-height="1016"
     id="namedview16"
     showgrid="false"
     fit-margin-top="0"
     fit-margin-left="0"
     fit-margin-right="0"
     fit-margin-bottom="0"
     inkscape:zoom="0.9585864"
     inkscape:cx="127.97379"
     inkscape:cy="-21.425345"
     inkscape:window-x="0"
     inkscape:window-y="0"
     inkscape:window-maximized="1"
     inkscape:current-layer="svg8" />
  <defs
     id="defs2" />
  <metadata
     id="metadata5">
    <rdf:RDF>
      <cc:Work
         rdf:about="">
        <dc:format>image/svg+xml</dc:format>
        <dc:type
           rdf:resource="http://purl.org/dc/dcmitype/StillImage" />
        <dc:title></dc:title>
      </cc:Work>
    </rdf:RDF>
  </metadata>
  <g
     transform="matrix(0.14591219,0,0,0.14591219,0.36998311,1.1711422)"
     id="layer1">
    <circle
       r="64.956818"
       cy="56.93047"
       cx="62.421162"
       id="path850"
       style="opacity:1;fill:#e6e6e6;fill-opacity:1;stroke:none;stroke-width:0.36500001;stroke-linecap:round;stroke-linejoin:round;stroke-miterlimit:4;stroke-dasharray:none;stroke-dashoffset:0.15000002;stroke-opacity:1;paint-order:stroke fill markers" />
    <path
       id="path873"
       transform="matrix(0.26458333,0,0,0.26458333,-2.718156,-8.2088481)"
       d="m 290.92383,82.775391 -70.90039,154.068359 115.2207,66.52344 35.25391,154.20117 A 245.50608,245.50608 0 0 0 488.94922,280.80078 Z"
       style="fill:#b3b3b3;stroke:none;stroke-width:0.99999994px;stroke-linecap:butt;stroke-linejoin:miter;stroke-opacity:1"
       inkscape:connector-curvature="0" />
    <path
       id="path871"
       transform="matrix(0.26458333,0,0,0.26458333,-2.718156,-8.2088481)"
       d="m 326.42773,287.39258 -208.96679,101.2539 101.40234,101.40235 a 245.50608,245.50608 0 0 0 27.33203,1.65234 245.50608,245.50608 0 0 0 191.8418,-92.69922 z"
       style="fill:#b3b3b3;fill-opacity:1;stroke:none;stroke-width:0.99999994px;stroke-linecap:butt;stroke-linejoin:miter;stroke-opacity:1"
       inkscape:connector-curvature="0" />
    <path
       id="path875"
       d="m 52.004429,57.681013 7.556788,4.362913 -0.799184,0.9789 -6.709077,-3.189173 z"
       style="fill:#b3b3b3;fill-opacity:1;stroke:none;stroke-width:0.26458332px;stroke-linecap:butt;stroke-linejoin:miter;stroke-opacity:1"
       inkscape:connector-curvature="0" />
    <g
       transform="translate(-145.5862,-24.623108)"
       id="g844">
      <path
         id="path846"
         d="m 196.50489,127.59108 c 0,-0.14553 -0.38695,-0.26497 -0.85989,-0.26543 -1.22817,-10e-4 -5.18076,-0.71443 -8.26587,-1.49153 -6.90363,-1.73893 -12.86285,-5.00851 -14.34199,-7.86885 -0.83712,-1.6188 0.0157,-15.14755 1.25287,-19.875235 1.57204,-6.007312 4.89135,-9.766948 10.91694,-12.365135 2.17552,-0.938064 7.33122,-2.419131 10.84862,-3.116456 l 1.53506,-0.304323 1.37536,1.061026 c 2.57948,1.98995 5.37326,2.824869 9.31286,2.783136 3.41859,-0.03621 6.17979,-0.8872 8.46146,-2.607773 0.87026,-0.656251 1.61251,-1.193183 1.64943,-1.193183 0.0369,0 1.52755,0.308007 3.3125,0.684459 10.36453,2.185923 15.66,5.350758 18.44895,11.026017 1.93506,3.937675 2.50754,7.129777 2.96596,16.538167 0.28168,5.7812 0.27022,6.50987 -0.11515,7.318 -0.45252,0.94894 -3.22482,3.31781 -5.22211,4.46219 -3.2945,1.88762 -10.33305,4.04331 -15.41198,4.7202 -1.41883,0.18909 -2.57969,0.43729 -2.57969,0.55155 0,0.11426 -5.23875,0.20775 -11.64166,0.20775 -7.58473,0 -11.64167,-0.0922 -11.64167,-0.26458 z m 8.03532,-47.226083 c -3.15776,-0.686784 -6.18687,-2.523834 -8.89482,-5.394404 -2.20478,-2.337176 -3.86701,-5.147143 -4.91458,-8.30798 -1.08542,-3.275028 -1.3653,-5.210461 -1.36767,-9.457643 -0.005,-8.560472 1.48636,-13.650919 5.05514,-17.257203 2.00778,-2.028878 4.67534,-3.472814 7.3574,-3.982518 0.88461,-0.168113 1.60838,-0.397481 1.60838,-0.509707 0,-0.112226 2.08359,-0.204047 4.63021,-0.204047 2.54661,0 4.6302,0.09182 4.6302,0.204047 0,0.112226 0.72377,0.341594 1.60838,0.509707 2.68475,0.510216 5.35001,1.95357 7.35401,3.982518 3.56705,3.611454 5.0633,8.715918 5.05853,17.257203 -0.002,4.247182 -0.28225,6.182615 -1.36767,9.457643 -3.26039,9.837581 -12.00035,15.606977 -20.75751,13.702384 z"
         style="fill:#020202;stroke-width:0.26458332"
         inkscape:connector-curvature="0" />
    </g>
    <g
       style="fill:#ffffff"
       transform="matrix(0.29767194,0,0,0.29767194,7.7989559,51.96872)"
       id="g894">
      <path
         id="path896"
         d="m 117.18783,159.52775 c 0.0979,-0.44294 24.03293,-23.73833 58.34732,-56.78805 5.22504,-5.032466 9.81757,-9.672231 10.20562,-10.31059 l 0.70556,-1.160653 -1.49931,-2.785921 c -0.82462,-1.532258 -1.4993,-2.964681 -1.4993,-3.183163 0,-0.28884 4.53184,-0.397238 16.60769,-0.397238 h 16.60769 l 0.95382,0.970138 c 1.09362,1.112333 19.53233,32.382127 19.59083,33.223667 0.0345,0.49608 -1.72703,0.56451 -16.641,0.64646 -13.84735,0.0761 -16.84247,0.007 -17.63889,-0.40886 -0.68969,-0.35983 -1.9361,-2.26949 -4.43465,-6.79443 -1.91144,-3.46165 -3.75453,-6.58479 -4.09577,-6.9403 -0.59709,-0.62208 -1.32865,0.0418 -19.45521,17.65508 -10.35913,10.0658 -23.12104,22.46135 -28.35979,27.54567 l -9.525,9.24421 -9.99184,1e-5 c -8.58554,2e-5 -9.97578,-0.0726 -9.87777,-0.51603 z m 66.71696,-80.931079 c -2.36799,-0.121509 -4.45806,-0.379675 -4.64459,-0.573703 -0.18654,-0.194028 -2.8898,-4.87195 -6.00725,-10.395383 -3.8999,-6.90979 -5.55436,-10.156261 -5.30355,-10.406944 0.24038,-0.240246 6.0031,-0.364339 16.91939,-0.364339 h 16.55485 l 0.84612,0.881944 c 0.46537,0.48507 2.40172,4.183827 4.30301,8.21946 1.90129,4.035633 3.59568,7.423296 3.76532,7.52814 0.16964,0.104843 1.76902,-1.052856 3.55417,-2.572665 9.88281,-8.413839 16.08057,-13.436515 16.8456,-13.651699 1.23831,-0.348304 18.01146,-0.737131 19.17717,-0.444555 0.83907,0.210593 0.91116,0.32236 0.51544,0.799172 -0.40191,0.484276 -8.84433,7.398137 -20.30315,16.627128 -6.12223,4.930878 -3.41327,4.42373 -24.06113,4.504511 -9.82079,0.03842 -19.79342,-0.02956 -22.1614,-0.151067 z"
         style="fill:#ffffff;stroke-width:0.35277775"
         inkscape:connector-curvature="0" />
    </g>
    <path
       id="path900"
       d="m 88.287117,99.485518 -0.534538,-18.8425 -1.202714,-0.801809 1.269532,0.634764 0.100224,-1.135893 0.100227,1.169302 z"
       style="fill:#ffffff;stroke:none;stroke-width:0.26458332px;stroke-linecap:butt;stroke-linejoin:miter;stroke-opacity:1"
       inkscape:connector-curvature="0" />
    <path
       style="fill:#ffffff;stroke:none;stroke-width:0.26458332px;stroke-linecap:butt;stroke-linejoin:miter;stroke-opacity:1"
       d="m 35.167298,99.485518 0.718856,-18.462697 c 0.0061,-0.07231 0.02819,-0.143165 0.0739,-0.192452 l 0.944493,-0.98916 c 0,0 -0.564189,0.464653 -0.977206,0.23386 -0.331811,-0.185415 -0.510668,-3.333575 -0.510668,-3.333575 0,0 0.02375,2.511925 0.01789,3.767888 -0.02953,6.325937 -0.267266,18.976136 -0.267265,18.976136 z"
       id="path902"
       inkscape:connector-curvature="0" />
  </g>
</svg>
