<?xml version="1.0" encoding="UTF-8" standalone="no"?>
<!-- Created with Inkscape (http://www.inkscape.org/) -->

<svg
   xmlns:dc="http://purl.org/dc/elements/1.1/"
   xmlns:cc="http://creativecommons.org/ns#"
   xmlns:rdf="http://www.w3.org/1999/02/22-rdf-syntax-ns#"
   xmlns:svg="http://www.w3.org/2000/svg"
   xmlns="http://www.w3.org/2000/svg"
   xmlns:sodipodi="http://sodipodi.sourceforge.net/DTD/sodipodi-0.dtd"
   xmlns:inkscape="http://www.inkscape.org/namespaces/inkscape"
   width="34.914856mm"
   height="22.394176mm"
   viewBox="0 0 34.914856 22.394176"
   version="1.1"
   id="svg5"
   inkscape:version="0.92.5 (2060ec1f9f, 2020-04-08)"
   sodipodi:docname="ver_almacen.svg">
  <metadata
     id="metadata20">
    <rdf:RDF>
      <cc:Work
         rdf:about="">
        <dc:format>image/svg+xml</dc:format>
        <dc:type
           rdf:resource="http://purl.org/dc/dcmitype/StillImage" />
      </cc:Work>
    </rdf:RDF>
  </metadata>
  <sodipodi:namedview
     id="namedview7"
     pagecolor="#ffffff"
     bordercolor="#666666"
     borderopacity="1.0"
     inkscape:pageshadow="2"
     inkscape:pageopacity="0.0"
     inkscape:pagecheckerboard="0"
     inkscape:document-units="mm"
     showgrid="false"
     inkscape:zoom="2.8284271"
     inkscape:cx="47.19938"
     inkscape:cy="110.30865"
     inkscape:window-width="1920"
     inkscape:window-height="1015"
     inkscape:window-x="0"
     inkscape:window-y="0"
     inkscape:window-maximized="1"
     inkscape:current-layer="layer1"
     fit-margin-top="0"
     fit-margin-left="0"
     fit-margin-right="0"
     fit-margin-bottom="0" />
  <defs
     id="defs2">
    <style
       id="style824">.cls-1{fill:none;}</style>
    <style
       id="style998">.cls-1{fill:none;}</style>
  </defs>
  <g
     inkscape:label="Capa 1"
     inkscape:groupmode="layer"
     id="layer1"
     transform="translate(-1.2345909,-2.17841)">
    <path
       id="path1655"
       style="stroke-width:0.264583;fill:#222d32"
       d="m 19.102115,8.1161939 a 0.52982812,0.52982812 0 0 0 -0.529167,0.5291666 v 1.0583334 a 0.52982812,0.52982812 0 0 0 0.529167,0.5291671 v 2.645833 a 0.52982812,0.52982812 0 0 0 0.529167,0.529166 h 4.233333 a 0.52982812,0.52982812 0 0 0 0.529167,-0.529166 V 10.232861 A 0.52982812,0.52982812 0 0 0 24.922948,9.7036939 V 8.6453605 A 0.52982812,0.52982812 0 0 0 24.393782,8.1161939 H 23.663077 22.67399 22.012532 21.483365 20.821907 19.83282 Z m 0,0.5291666 h 2.38125 0.529167 2.38125 v 1.0583334 h -2.38125 -0.529167 -2.38125 z m 0.529167,1.5875005 h 1.852083 0.529167 1.852083 v 2.645833 h -1.852083 -0.529167 -1.852083 z" />
    <path
       id="path1657"
       style="stroke-width:0.264583;fill:#222d32"
       d="m 26.628814,8.1161939 a 0.52982812,0.52982812 0 0 0 -0.529167,0.5291666 v 1.0583334 a 0.52982812,0.52982812 0 0 0 0.529167,0.5291671 v 2.645833 a 0.52982812,0.52982812 0 0 0 0.529167,0.529166 h 4.233333 a 0.52982812,0.52982812 0 0 0 0.529167,-0.529166 V 10.232861 A 0.52982812,0.52982812 0 0 0 32.449647,9.7036939 V 8.6453605 A 0.52982812,0.52982812 0 0 0 31.920481,8.1161939 h -0.730705 -0.989087 -0.661458 -0.529167 -0.661458 -0.989087 z m 0,0.5291666 h 2.38125 0.529167 2.38125 v 1.0583334 h -2.38125 -0.529167 -2.38125 z m 0.529167,1.5875005 h 1.852083 0.529167 1.852083 v 2.645833 h -1.852083 -0.529167 -1.852083 z" />
    <path
       id="path1680"
       style="stroke-width:0.264583;fill:#222d32"
       d="m 4.414958,18.755571 a 0.52982812,0.52982812 0 0 0 -0.5291666,0.529167 v 1.058333 a 0.52982812,0.52982812 0 0 0 0.5291666,0.529167 v 2.645833 a 0.52982812,0.52982812 0 0 0 0.5291667,0.529166 H 9.1774579 A 0.52982812,0.52982812 0 0 0 9.7066245,23.518071 V 20.872238 A 0.52982812,0.52982812 0 0 0 10.235791,20.343071 V 19.284738 A 0.52982812,0.52982812 0 0 0 9.7066245,18.755571 H 8.97592 7.9868329 7.3253745 6.7962079 6.1347496 5.1456627 Z m 0,0.529167 h 2.3812499 0.5291666 2.38125 v 1.058333 H 7.3253745 6.7962079 4.414958 Z m 0.5291667,1.5875 h 1.8520832 0.5291666 1.8520834 v 2.645833 H 7.3253745 6.7962079 4.9441247 Z" />
    <path
       id="path1684"
       style="stroke-width:0.264583;fill:#222d32"
       d="m 19.102115,18.755571 a 0.52982812,0.52982812 0 0 0 -0.529167,0.529167 v 1.058333 a 0.52982812,0.52982812 0 0 0 0.529167,0.529167 v 2.645833 a 0.52982812,0.52982812 0 0 0 0.529167,0.529166 h 4.233333 a 0.52982812,0.52982812 0 0 0 0.529167,-0.529166 v -2.645833 a 0.52982812,0.52982812 0 0 0 0.529166,-0.529167 V 19.284738 A 0.52982812,0.52982812 0 0 0 24.393782,18.755571 H 23.663077 22.67399 22.012532 21.483365 20.821907 19.83282 Z m 0,0.529167 h 2.38125 0.529167 2.38125 v 1.058333 h -2.38125 -0.529167 -2.38125 z m 0.529167,1.5875 h 1.852083 0.529167 1.852083 v 2.645833 h -1.852083 -0.529167 -1.852083 z" />
    <path
       id="path1686"
       style="stroke-width:0.264583;fill:#222d32"
       d="m 26.628814,18.755571 a 0.52982812,0.52982812 0 0 0 -0.529167,0.529167 v 1.058333 a 0.52982812,0.52982812 0 0 0 0.529167,0.529167 v 2.645833 a 0.52982812,0.52982812 0 0 0 0.529167,0.529166 h 4.233333 a 0.52982812,0.52982812 0 0 0 0.529167,-0.529166 v -2.645833 a 0.52982812,0.52982812 0 0 0 0.529166,-0.529167 v -1.058333 a 0.52982812,0.52982812 0 0 0 -0.529166,-0.529167 h -0.730705 -0.989087 -0.661458 -0.529167 -0.661458 -0.989087 z m 0,0.529167 h 2.38125 0.529167 2.38125 v 1.058333 h -2.38125 -0.529167 -2.38125 z m 0.529167,1.5875 h 1.852083 0.529167 1.852083 v 2.645833 h -1.852083 -0.529167 -1.852083 z" />
    <path
       id="path1688"
       style="stroke-width:0.264583;fill:#222d32"
       d="m 4.414958,13.430748 a 0.52982812,0.52982812 0 0 0 -0.5291666,0.529166 v 1.058334 a 0.52982812,0.52982812 0 0 0 0.5291666,0.529167 v 2.645833 a 0.52982812,0.52982812 0 0 0 0.5291667,0.529166 H 9.1774579 A 0.52982812,0.52982812 0 0 0 9.7066245,18.193248 V 15.547415 A 0.52982812,0.52982812 0 0 0 10.235791,15.018248 V 13.959914 A 0.52982812,0.52982812 0 0 0 9.7066245,13.430748 H 8.97592 7.9868329 7.3253745 6.7962079 6.1347496 5.1456627 Z m 0,0.529166 h 2.3812499 0.5291666 2.38125 v 1.058334 H 7.3253745 6.7962079 4.414958 Z m 0.5291667,1.587501 h 1.8520832 0.5291666 1.8520834 v 2.645833 H 7.3253745 6.7962079 4.9441247 Z" />
    <path
       id="path1692"
       style="stroke-width:0.264583;fill:#222d32"
       d="m 19.102115,13.430748 a 0.52982812,0.52982812 0 0 0 -0.529167,0.529166 v 1.058334 a 0.52982812,0.52982812 0 0 0 0.529167,0.529167 v 2.645833 a 0.52982812,0.52982812 0 0 0 0.529167,0.529166 h 4.233333 a 0.52982812,0.52982812 0 0 0 0.529167,-0.529166 v -2.645833 a 0.52982812,0.52982812 0 0 0 0.529166,-0.529167 V 13.959914 A 0.52982812,0.52982812 0 0 0 24.393782,13.430748 H 23.663077 22.67399 22.012532 21.483365 20.821907 19.83282 Z m 0,0.529166 h 2.38125 0.529167 2.38125 v 1.058334 h -2.38125 -0.529167 -2.38125 z m 0.529167,1.587501 h 1.852083 0.529167 1.852083 v 2.645833 h -1.852083 -0.529167 -1.852083 z" />
    <path
       id="path1694"
       style="stroke-width:0.264583;fill:#222d32"
       d="m 26.628814,13.430748 a 0.52982812,0.52982812 0 0 0 -0.529167,0.529166 v 1.058334 a 0.52982812,0.52982812 0 0 0 0.529167,0.529167 v 2.645833 a 0.52982812,0.52982812 0 0 0 0.529167,0.529166 h 4.233333 a 0.52982812,0.52982812 0 0 0 0.529167,-0.529166 v -2.645833 a 0.52982812,0.52982812 0 0 0 0.529166,-0.529167 v -1.058334 a 0.52982812,0.52982812 0 0 0 -0.529166,-0.529166 h -0.730705 -0.989087 -0.661458 -0.529167 -0.661458 -0.989087 z m 0,0.529166 h 2.38125 0.529167 2.38125 v 1.058334 h -2.38125 -0.529167 -2.38125 z m 0.529167,1.587501 h 1.852083 0.529167 1.852083 v 2.645833 h -1.852083 -0.529167 -1.852083 z" />
    <g
       id="g1183"
       transform="translate(3.6512145,0.49936794)"
       style="fill:#222d32">
      <path
         d="M 11.251377,23.411474 H 10.193044 A 0.52916666,0.52916666 0 0 1 9.6638773,22.882307 v -1.852083 a 0.52916666,0.52916666 0 0 1 -0.529167,-0.529167 v -1.5875 a 0.79374999,0.79374999 0 0 1 0.79375,-0.79375 h 1.5875007 a 0.79374999,0.79374999 0 0 1 0.79375,0.79375 v 1.5875 a 0.52916666,0.52916666 0 0 1 -0.529167,0.529167 v 1.852083 a 0.52916666,0.52916666 0 0 1 -0.529167,0.529167 z m -1.3229167,-4.7625 a 0.24870833,0.24870833 0 0 0 -0.264583,0.264583 v 1.5875 h 0.5291667 v 2.38125 h 1.058333 v -2.38125 h 0.529167 v -1.5875 a 0.24870833,0.24870833 0 0 0 -0.264583,-0.264583 z"
         id="path1004"
         style="stroke-width:0.264583;fill:#222d32" />
      <path
         d="m 10.669712,17.928665 a 1.0583333,1.0583333 0 1 1 1.058333,-1.058333 v 0 a 1.0583333,1.0583333 0 0 1 -1.058333,1.058333 z m 0,-1.5875 a 0.52916666,0.52916666 0 1 0 0.529166,0.529167 v 0 a 0.52916666,0.52916666 0 0 0 -0.529166,-0.529167 z"
         id="path1006"
         style="stroke-width:0.264583;fill:#222d32" />
    </g>
    <path
       style="fill:none;stroke:#222d32;stroke-width:0.565;stroke-linecap:round;stroke-linejoin:round;stroke-miterlimit:4;stroke-dasharray:none;stroke-opacity:1"
       d="M 1.5170909,23.672222 V 7.0876649 L 18.784378,2.460909 35.716025,6.9977302 35.866947,24.290087"
       id="path1595"
       sodipodi:nodetypes="ccccc" />
  </g>
</svg>
